<svg width="66" height="66" viewBox="0 0 66 66" fill="none" xmlns="http://www.w3.org/2000/svg">
<path d="M50.92 36.84C51.688 36.84 52.456 36.968 53.096 36.968C54.12 34.152 54.76 31.08 54.76 27.88C54.76 13.032 42.728 1 27.88 1C13.032 1 1 13.032 1 27.88C1 42.728 13.032 54.76 27.88 54.76C31.08 54.76 34.152 54.12 36.968 53.096C36.968 52.456 36.84 51.688 36.84 50.92C36.84 43.112 43.112 36.84 50.92 36.84Z" stroke="#6E737D" stroke-width="2" stroke-miterlimit="10" stroke-linecap="round" stroke-linejoin="round"/>
<path d="M27.8804 24.8079V14.4399V24.8079Z" stroke="#6E737D" stroke-width="2" stroke-miterlimit="10" stroke-linecap="round" stroke-linejoin="round"/>
<path d="M38.8881 27.8799H30.9521H38.8881Z" stroke="#6E737D" stroke-width="2" stroke-miterlimit="10" stroke-linecap="round" stroke-linejoin="round"/>
<path d="M27.8804 8.29587V7.01587V8.29587Z" stroke="#6E737D" stroke-width="2" stroke-miterlimit="10" stroke-linecap="round" stroke-linejoin="round"/>
<path d="M27.8804 48.6159V47.3359V48.6159Z" stroke="#6E737D" stroke-width="2" stroke-miterlimit="10" stroke-linecap="round" stroke-linejoin="round"/>
<path d="M8.29611 27.8799H7.01611H8.29611Z" stroke="#6E737D" stroke-width="2" stroke-miterlimit="10" stroke-linecap="round" stroke-linejoin="round"/>
<path d="M48.6159 27.8799H47.3359H48.6159Z" stroke="#6E737D" stroke-width="2" stroke-miterlimit="10" stroke-linecap="round" stroke-linejoin="round"/>
<path d="M27.8801 30.952C29.5767 30.952 30.9521 29.5766 30.9521 27.88C30.9521 26.1834 29.5767 24.808 27.8801 24.808C26.1835 24.808 24.8081 26.1834 24.8081 27.88C24.8081 29.5766 26.1835 30.952 27.8801 30.952Z" fill="#C2E812" stroke="#6E737D" stroke-width="2" stroke-miterlimit="10" stroke-linecap="round" stroke-linejoin="round"/>
<path d="M50.9198 65.0001C43.1118 65.0001 36.8398 58.7281 36.8398 50.9201C36.8398 43.1121 43.1118 36.8401 50.9198 36.8401C58.7278 36.8401 64.9998 43.1121 64.9998 50.9201C64.9998 58.7281 58.7278 65.0001 50.9198 65.0001Z" fill="#C2E812" stroke="#6E737D" stroke-width="2" stroke-miterlimit="10" stroke-linecap="round" stroke-linejoin="round"/>
<path d="M54.8876 53.8641C54.8876 52.3281 53.6076 51.0481 51.8156 50.7921L50.2796 50.4081C48.7436 50.1521 47.5916 49.0001 47.5916 47.7201C47.5916 46.1841 49.1276 45.0321 51.0476 45.0321C52.9676 45.0321 54.5036 46.3121 54.5036 47.7201C54.5036 46.1841 52.9676 44.9041 51.0476 44.9041V42.9841V44.9041C49.1276 44.9041 47.5916 46.1841 47.5916 47.7201C47.5916 49.0001 48.7436 50.2801 50.4076 50.5361L51.9436 50.9201C53.4796 51.1761 54.7596 52.4561 54.8876 53.8641ZM54.8876 53.8641C54.7596 55.5281 53.0956 56.9361 50.9196 56.9361C48.8716 56.9361 47.0796 55.5281 47.0796 53.8641C47.0796 55.5281 48.7436 56.9361 50.9196 56.9361V58.8561V56.9361C53.0956 56.9361 54.8876 55.5281 54.8876 53.8641Z" stroke="#6E737D" stroke-width="2" stroke-miterlimit="10" stroke-linecap="round" stroke-linejoin="round"/>
</svg>
