<svg width="63" height="63" viewBox="0 0 63 63" fill="none" xmlns="http://www.w3.org/2000/svg">
<path d="M1 52.7394C1 57.3228 4.74318 61.0728 9.31818 61.0728H53.6818C58.2568 61.0728 62 57.3228 62 52.7394V23.5728H1V52.7394Z" stroke="#6E737D" stroke-width="2" stroke-miterlimit="10" stroke-linecap="round" stroke-linejoin="round"/>
<rect x="10.3184" y="39.5728" width="6.31818" height="6.33333" rx="1" fill="#C2E812" stroke="#6E737D" stroke-width="2"/>
<rect x="46.3633" y="39.5728" width="6.31818" height="6.33333" rx="1" fill="#C2E812" stroke="#6E737D" stroke-width="2"/>
<path d="M53.6818 6.90601H9.31818C4.74318 6.90601 1 10.656 1 15.2393V23.5727H62V15.2393C62 10.656 58.2568 6.90601 53.6818 6.90601Z" stroke="#6E737D" stroke-width="2" stroke-miterlimit="10" stroke-linecap="round" stroke-linejoin="round"/>
<path d="M53.6818 6.90601H52.0182V9.40601C52.0182 11.2116 50.4932 12.7393 48.6909 12.7393C46.8886 12.7393 45.3636 11.2116 45.3636 9.40601V6.90601H17.6364V9.40601C17.6364 11.2116 16.1114 12.7393 14.3091 12.7393C12.5068 12.7393 10.9818 11.2116 10.9818 9.40601V6.90601H9.31818C4.74318 6.90601 1 10.656 1 15.2393V23.5727H62V15.2393C62 10.656 58.2568 6.90601 53.6818 6.90601Z" fill="#C2E812" stroke="#6E737D" stroke-width="2" stroke-miterlimit="10" stroke-linecap="round" stroke-linejoin="round"/>
<path d="M14.3092 12.7394C12.5069 12.7394 10.9819 11.2116 10.9819 9.40609V4.40609C10.9819 2.60053 12.5069 1.07275 14.3092 1.07275C16.1115 1.07275 17.6365 2.60053 17.6365 4.40609V9.40609C17.6365 11.2116 16.1115 12.7394 14.3092 12.7394Z" fill="white" stroke="#6E737D" stroke-width="2" stroke-miterlimit="10" stroke-linecap="round" stroke-linejoin="round"/>
<path d="M48.6906 12.7394C46.8883 12.7394 45.3633 11.2116 45.3633 9.40609V4.40609C45.3633 2.60053 46.8883 1.07275 48.6906 1.07275C50.4928 1.07275 52.0178 2.60053 52.0178 4.40609V9.40609C52.0178 11.2116 50.4928 12.7394 48.6906 12.7394Z" fill="white" stroke="#6E737D" stroke-width="2" stroke-miterlimit="10" stroke-linecap="round" stroke-linejoin="round"/>
<path d="M36.2134 45.7949C36.2134 43.9894 34.6884 42.4616 32.4703 42.0449L30.668 41.6282C28.7271 41.3505 27.3407 39.9616 27.3407 38.4338C27.3407 36.6282 29.143 35.1005 31.4998 35.1005C33.8566 35.1005 35.6589 36.6282 35.6589 38.4338C35.6589 36.4894 33.718 34.9616 31.4998 34.9616V32.6005V34.9616C29.143 34.9616 27.3407 36.4894 27.3407 38.4338C27.3407 40.1005 28.7271 41.4894 30.668 41.7671L32.4703 42.1838C34.5498 42.6005 36.0748 44.1282 36.2134 45.7949ZM36.2134 45.7949C36.0748 47.8782 33.9953 49.406 31.4998 49.406C29.0043 49.406 26.9248 47.7394 26.9248 45.7949C26.9248 47.8782 29.0043 49.5449 31.6384 49.5449V51.906V49.6838C34.1339 49.5449 36.2134 47.8782 36.2134 45.7949Z" stroke="#6E737D" stroke-width="2" stroke-miterlimit="10" stroke-linecap="round" stroke-linejoin="round"/>
</svg>
