<svg width="75" height="42" viewBox="0 0 75 42" fill="none" xmlns="http://www.w3.org/2000/svg">
<path fill-rule="evenodd" clip-rule="evenodd" d="M63.3962 27.928C63.2884 28.7557 63.1447 29.5475 63.0009 30.3033C62.2821 30.0874 61.4915 29.6915 60.3414 29.7634C59.6586 29.7994 58.832 30.0874 58.832 30.6992C58.832 31.383 59.9461 31.7789 60.5571 32.1028C61.6712 32.6426 62.8931 33.3624 63.0009 34.838C63.0728 35.9537 62.5337 36.9614 61.9587 37.5012C60.3774 39.0128 56.8554 39.1568 54.4834 38.185C54.6272 37.3933 54.7709 36.5655 54.8787 35.7377C55.8131 36.1336 57.071 36.6735 58.4726 36.4935C59.1195 36.4215 59.8742 36.0257 59.8742 35.3778C59.8383 34.5861 58.3648 34.1182 57.6101 33.6863C56.7475 33.2185 55.7413 32.3907 55.7053 31.203C55.6694 30.3753 55.9928 29.6195 56.3882 29.1156C57.6101 27.6041 60.7727 27.0642 63.3962 27.928Z" fill="#3A57A7"/>
<path fill-rule="evenodd" clip-rule="evenodd" d="M34.9683 12.3805H38.1669L36.1903 24.7969H32.9917L34.9683 12.3805Z" fill="#3A57A7"/>
<path fill-rule="evenodd" clip-rule="evenodd" d="M23.8995 12.3805H28.7872C31.9138 12.3805 32.7045 14.18 32.381 16.3034C32.0935 18.1029 30.7997 19.2905 29.1465 19.7224L32.2373 24.7969H28.2121L25.8761 19.9023L25.0855 24.7969H21.9229L23.8995 12.3805ZM26.7027 14.8638L26.1996 17.9949H27.134C28.0324 17.9949 28.895 17.3111 29.0387 16.4473C29.1825 15.5836 28.5715 14.8998 27.6731 14.8998H26.7027V14.8638Z" fill="#3A57A7"/>
<path fill-rule="evenodd" clip-rule="evenodd" d="M49.5593 12.3805H52.7579L50.8172 24.7969H47.6187L49.5593 12.3805Z" fill="#3A57A7"/>
<path fill-rule="evenodd" clip-rule="evenodd" d="M55.2022 12.3805H62.2103L61.779 15.0797H57.9695L57.6461 17.2031H61.2759L60.8446 19.9023H57.2148L56.8554 22.0977H60.6649L60.2337 24.7969H53.2256L55.2022 12.3805Z" fill="#3A57A7"/>
<path fill-rule="evenodd" clip-rule="evenodd" d="M14.9864 12.3805H21.9945L21.5632 15.0797H17.7537L17.4302 17.2031H21.0601L20.6288 19.9023H16.999L16.6396 22.0977H20.4491L20.0178 24.7969H13.0098L14.9864 12.3805Z" fill="#3A57A7"/>
<path fill-rule="evenodd" clip-rule="evenodd" d="M40.575 12.3805H47.6909L47.2596 15.0797H43.3423L43.0188 17.2031H46.5768L46.1455 19.9023H42.5875L41.8328 24.7969H38.6343L40.575 12.3805Z" fill="#3A57A7"/>
<path fill-rule="evenodd" clip-rule="evenodd" d="M64.0789 12.3805H68.2478C73.2073 12.3805 74.3574 16.1234 73.962 18.6067C73.423 22.0977 70.2963 24.7969 66.3071 24.7969H62.1382L64.0789 12.3805ZM66.8462 15.0797C67.0618 15.0797 67.3134 15.0797 67.4931 15.0797C69.9369 15.0797 70.9073 16.8072 70.6197 18.4628C70.2604 20.6941 68.679 22.0977 66.5587 22.0977C66.2711 22.0977 66.0196 22.0977 65.6961 22.0977L66.8462 15.0797Z" fill="#3A57A7"/>
<path fill-rule="evenodd" clip-rule="evenodd" d="M0 10.6889H5.9299L6.64868 19.7224C10.5301 12.9203 14.5193 6.40617 18.5085 0H20.4492C16.2084 8.20566 12.0036 16.4473 7.94247 24.7969H3.62982L2.55165 14.8638C2.30008 12.3805 1.79694 11.3368 0 11.0848V10.6889Z" fill="#3A57A7"/>
<path fill-rule="evenodd" clip-rule="evenodd" d="M2.22803 5.57838L7.2954 7.70178L7.72666 13.3162H8.08605L12.6503 5.57838V5.1825H2.22803V5.57838Z" fill="#F8981D"/>
<path fill-rule="evenodd" clip-rule="evenodd" d="M25.5524 33.6865C26.3071 33.6865 26.8462 34.3703 26.7024 35.27C26.5946 36.1338 25.8758 36.8176 25.0852 36.8176C24.3305 36.8176 23.7914 36.1338 23.9351 35.27C24.043 34.4062 24.7977 33.6865 25.5524 33.6865ZM22.9648 27.7122H25.0492L24.3664 32.6068C24.9414 32.0309 25.6961 31.671 26.4868 31.671C28.14 31.671 29.2181 33.2906 28.9306 35.234C28.6431 37.2134 27.0618 38.797 25.4086 38.797C24.582 38.797 24.007 38.4371 23.6117 37.7893L23.5039 38.5811H21.4194L22.9648 27.7122Z" fill="#3A57A7"/>
<path fill-rule="evenodd" clip-rule="evenodd" d="M29.0742 31.851H31.554L32.6681 35.342L34.8244 31.851H37.2323L30.9431 42.0001H28.5352L31.1946 37.7173L29.0742 31.851Z" fill="#3A57A7"/>
<path fill-rule="evenodd" clip-rule="evenodd" d="M49.5596 38.653L51.3925 27.7122H54.3754L52.5425 38.653H49.5596Z" fill="#3A57A7"/>
<path fill-rule="evenodd" clip-rule="evenodd" d="M47.0799 27.7122C46.0376 30.1235 45.1751 32.7147 44.1329 35.0901L43.8094 33.6505L43.8454 33.9024C43.6297 33.1466 43.2344 32.4268 42.7313 31.779L42.6953 31.743C42.6234 31.635 42.5156 31.5271 42.4078 31.4191C42.3359 31.3471 42.3 31.2751 42.2281 31.2032C41.5093 30.4114 40.6468 29.7276 39.7124 29.1877L42.3719 38.617H45.5704C47.0799 34.9461 48.6971 31.3831 50.2065 27.7122C49.1643 27.7122 48.1221 27.7122 47.0799 27.7122Z" fill="#3A57A7"/>
<path fill-rule="evenodd" clip-rule="evenodd" d="M41.4733 27.7122H36.6216V27.9641C39.4248 28.5039 42.9468 30.8793 43.8812 33.9024L42.839 28.7918C42.6952 28.0001 42.1202 27.7122 41.4733 27.7122Z" fill="#F8981D"/>
<path fill-rule="evenodd" clip-rule="evenodd" d="M73.423 38.653C72.5246 38.653 71.5902 38.653 70.6917 38.653C70.512 38.1492 70.4761 37.5013 70.2964 36.9615C69.0744 36.9615 67.8166 36.9615 66.5947 36.9615L65.9118 38.653C64.8696 38.653 63.8274 38.653 62.7852 38.653L66.8462 29.2957C67.0259 28.8998 67.3494 28.324 67.4931 28.072C67.7088 27.7121 68.4994 27.6761 68.8229 27.6761H71.087L73.423 38.653ZM68.8947 30.7353L67.3853 34.8021H69.8292L68.8947 30.7353Z" fill="#3A57A7"/>
</svg>
