<svg width="98" height="27" viewBox="0 0 98 27" fill="none" xmlns="http://www.w3.org/2000/svg">
<path d="M36.9577 2.58711C37.5737 2.52551 38.2513 2.46392 38.9288 2.40232C39.6064 2.34072 40.2839 2.34072 40.9615 2.34072C41.7007 2.34072 42.4398 2.40232 43.1174 2.52551C43.8565 2.6487 44.5341 2.95669 45.0885 3.32627C45.7044 3.75744 46.1972 4.31181 46.5052 4.98937C46.8748 5.66693 47.0596 6.59088 47.0596 7.69962C47.0596 8.80835 46.8748 9.7323 46.5052 10.4099C46.1972 11.0874 45.6428 11.6418 45.0885 12.073C44.4725 12.5041 43.8565 12.7505 43.1174 12.8737C42.4398 12.9969 41.7007 13.0585 40.9615 13.0585C40.7767 13.0585 40.5919 13.0585 40.4071 13.0585C40.2224 13.0585 40.0992 13.0585 39.9144 12.9969V17.9246C39.668 17.9862 39.36 17.9862 39.1136 17.9862C38.8672 17.9862 38.6208 17.9862 38.3745 17.9862C38.1281 17.9862 37.8817 17.9862 37.6353 17.9862C37.3889 17.9862 37.0809 17.9246 36.7729 17.9246L36.9577 2.58711ZM40.0376 10.4715C40.2224 10.4715 40.3455 10.5331 40.5303 10.5331H41.0847C41.4543 10.5331 41.8239 10.4715 42.1318 10.4099C42.4398 10.3483 42.7478 10.1635 43.0558 9.97869C43.3022 9.7323 43.5486 9.48591 43.6718 9.11634C43.8565 8.68516 43.9181 8.25398 43.9181 7.82281C43.9181 7.39163 43.8565 6.89886 43.6718 6.46769C43.5486 6.09811 43.3022 5.85172 43.0558 5.60534C42.8094 5.35895 42.5014 5.23576 42.1318 5.11256C41.8239 4.98937 41.4543 4.92777 41.0847 4.92777C40.8999 4.92777 40.7767 4.92777 40.6535 4.92777C40.5303 4.92777 40.3455 4.92777 40.0376 4.98937V10.4715ZM49.1538 2.34072C49.6466 2.27913 50.1394 2.21753 50.6938 2.21753C51.1865 2.21753 51.6793 2.27913 52.1721 2.34072V13.6129C52.1721 13.9825 52.1721 14.352 52.2337 14.66C52.2337 14.9064 52.3569 15.0912 52.48 15.276C52.6032 15.3992 52.7264 15.5224 52.9112 15.584C53.096 15.6456 53.3424 15.7072 53.5272 15.6456C53.6504 15.6456 53.7736 15.6456 53.8968 15.6456C54.02 15.6456 54.1432 15.584 54.2663 15.584C54.3895 16.1383 54.5127 16.6927 54.5127 17.3087V17.6166C54.5127 17.7398 54.5127 17.8014 54.4511 17.9246C54.2048 17.9862 53.8968 18.0478 53.6504 18.0478C53.3424 18.0478 53.0344 18.1094 52.788 18.1094C51.6793 18.1094 50.8169 17.8014 50.1394 17.1855C49.4618 16.5695 49.1538 15.584 49.1538 14.2288V2.34072ZM61.7195 10.7178C61.7195 10.4099 61.6579 10.1635 61.5347 9.85549C61.4115 9.6707 61.2883 9.48591 61.042 9.36272C60.7956 9.23953 60.5492 9.17793 60.3028 9.11634C59.9948 9.05474 59.6868 9.05474 59.3173 9.05474C58.4549 9.05474 57.6542 9.23953 56.8534 9.48591C56.6686 9.17793 56.5454 8.80835 56.4222 8.43877C56.299 8.0692 56.2374 7.63802 56.299 7.26844C56.915 7.08365 57.531 6.89886 58.2085 6.77567C58.7629 6.65248 59.3789 6.65248 59.9948 6.65248C61.4731 6.65248 62.6435 7.02205 63.5058 7.69962C64.3682 8.43877 64.7377 9.54751 64.7377 11.149V17.5551C64.1218 17.7398 63.5058 17.863 62.8899 17.9862C62.0891 18.1094 61.2883 18.2326 60.4876 18.171C59.81 18.171 59.1325 18.1094 58.4549 17.9862C57.9005 17.863 57.3462 17.6782 56.915 17.3703C56.4838 17.0623 56.1142 16.6927 55.9295 16.1999C55.6831 15.6456 55.5599 15.0912 55.5599 14.4752C55.5599 13.8593 55.6831 13.2433 55.9911 12.7505C56.299 12.3194 56.6686 11.8882 57.0998 11.6418C57.5926 11.3338 58.0853 11.149 58.6397 11.0258C59.1941 10.9026 59.7484 10.841 60.3644 10.841C60.7956 10.841 61.2267 10.841 61.7195 10.9026V10.7178ZM61.7195 12.9353C61.5347 12.9353 61.3499 12.8737 61.1652 12.8737C60.9804 12.8737 60.7956 12.8121 60.6108 12.8121C60.0564 12.8121 59.4405 12.9353 58.9477 13.1817C58.5165 13.4281 58.2701 13.9209 58.3317 14.4136C58.3317 14.7216 58.3933 15.0296 58.5781 15.276C58.7013 15.4608 58.9477 15.6456 59.1325 15.7072C59.3789 15.8304 59.6252 15.8304 59.81 15.8919C60.0564 15.8919 60.3028 15.9535 60.4876 15.9535C60.734 15.9535 60.9188 15.9535 61.1036 15.8919L61.6579 15.7688L61.7195 12.9353ZM67.6944 9.23953H66.2777L66.1545 8.80835L70.1582 3.69584H70.651V6.96046H73.2381C73.2997 7.14525 73.2997 7.33004 73.2997 7.51483C73.2997 7.69962 73.2997 7.88441 73.2997 8.0692C73.2997 8.25398 73.2997 8.43877 73.2997 8.62356C73.2997 8.80835 73.2381 9.05474 73.2381 9.23953H70.651V13.6129C70.651 13.9825 70.651 14.352 70.7742 14.66C70.8358 14.9064 70.959 15.0912 71.0822 15.276C71.2054 15.4608 71.3902 15.5224 71.575 15.584C71.8213 15.6456 72.0677 15.6456 72.2525 15.6456C72.4373 15.6456 72.6837 15.6456 72.8685 15.584L73.4229 15.4608C73.546 15.7072 73.6076 16.0151 73.6076 16.3231C73.6692 16.5695 73.6692 16.8159 73.6692 17.1239C73.6692 17.3087 73.6692 17.4319 73.6692 17.4935C73.6692 17.6166 73.6692 17.6782 73.6076 17.8014C72.9301 17.9862 72.2525 18.0478 71.575 18.0478C70.2814 18.0478 69.2959 17.7398 68.6183 17.1239C67.9408 16.5079 67.5712 15.5224 67.5712 14.1672L67.6944 9.23953Z" fill="black"/>
<path d="M80.2602 18.2941C79.4594 18.2941 78.6587 18.1709 77.9195 17.8629C77.3036 17.6165 76.7492 17.1854 76.2564 16.631C75.8252 16.0766 75.4557 15.4607 75.2709 14.7831C75.0245 14.0439 74.9629 13.3048 74.9629 12.504C74.9629 11.7033 75.0861 10.9641 75.2709 10.225C75.4557 9.54739 75.8252 8.93142 76.2564 8.37706C76.6876 7.82269 77.242 7.39151 77.9195 7.14513C78.6587 6.83714 79.4594 6.65235 80.2602 6.71395C81.0609 6.71395 81.8617 6.83714 82.6009 7.14513C83.2168 7.45311 83.8328 7.82269 84.264 8.37706C84.6951 8.93142 85.0647 9.54739 85.2495 10.225C85.4959 10.9641 85.5575 11.7649 85.5575 12.504C85.5575 13.2432 85.4343 14.0439 85.2495 14.7831C85.0647 15.4607 84.6951 16.0766 84.264 16.631C83.8328 17.1854 83.2168 17.5549 82.6009 17.8629C81.8617 18.1709 81.0609 18.2941 80.2602 18.2941ZM80.2602 15.9534C81.0609 15.9534 81.6153 15.6454 81.9849 15.0911C82.3545 14.4751 82.5393 13.6744 82.5393 12.504C82.5393 11.3953 82.3545 10.5329 81.9849 9.91697C81.6153 9.301 81.0609 9.05462 80.2602 9.05462C79.4594 9.05462 78.9051 9.3626 78.5355 9.91697C78.1659 10.4713 77.9811 11.3337 77.9811 12.504C77.9811 13.6128 78.1659 14.4751 78.5355 15.0911C78.9051 15.707 79.4594 15.9534 80.2602 15.9534ZM87.775 6.96034C87.9598 6.89874 88.1445 6.89874 88.3909 6.83714C88.6373 6.83714 88.8221 6.77555 89.0685 6.77555C89.2533 6.77555 89.4997 6.77555 89.6845 6.83714C89.8692 6.83714 90.054 6.89874 90.2388 6.96034C90.3004 7.08353 90.3004 7.14513 90.362 7.26832C90.4236 7.39151 90.4236 7.5763 90.4852 7.69949C90.4852 7.82269 90.5468 8.00748 90.5468 8.13067C90.5468 8.25386 90.6084 8.37706 90.6084 8.50025C90.7316 8.25386 90.9164 8.06907 91.1012 7.88428C91.286 7.6379 91.5323 7.45311 91.7787 7.32992C92.0867 7.14513 92.3331 7.02193 92.6411 6.89874C93.0107 6.77555 93.3802 6.71395 93.7498 6.71395C94.9817 6.71395 95.9673 7.08353 96.5833 7.76109C97.1992 8.43865 97.5072 9.54739 97.5072 11.0257V18.1093C96.5217 18.2941 95.4745 18.2941 94.489 18.1093V11.7649C94.489 11.0257 94.3658 10.4097 94.1194 9.97857C93.873 9.54739 93.5034 9.3626 92.8875 9.3626C92.6411 9.3626 92.3947 9.4242 92.1483 9.48579C91.9019 9.54739 91.6555 9.73218 91.4708 9.91697C91.2244 10.1634 91.0396 10.4713 90.978 10.7793C90.8548 11.2721 90.7932 11.7649 90.7932 12.2576V18.0477C89.8076 18.2325 88.7605 18.2325 87.775 18.0477V6.96034Z" fill="#F26424"/>
<path d="M4.74296 16.3229C3.94221 16.6925 3.26465 17.7397 3.26465 18.602V25.8088C3.26465 26.0552 3.32624 26.3016 3.51103 26.548C3.63423 26.7327 3.81902 26.7943 4.0654 26.7943C4.25019 26.7943 4.43498 26.7327 4.55817 26.6712L11.9498 23.2833C12.7505 22.9138 13.4281 21.8666 13.4281 21.0043V16.9389C13.4281 16.3845 8.31556 14.7214 8.31556 14.7214L4.74296 16.3229Z" fill="url(#paint0_linear)"/>
<path d="M0 10.7179C0 11.8882 0.923947 13.3049 1.97109 13.7977L13.4896 19.095V16.4463L0 10.2251V10.7179Z" fill="url(#paint1_linear)"/>
<path d="M3.14142 4.98932L1.7247 4.37335C1.23193 4.12696 0.985544 3.63419 0.923947 3.14142V2.15588C0.923947 1.66311 1.29353 1.41672 1.7247 1.66311L3.14142 2.27907C3.63419 2.52546 3.88058 3.01823 3.94217 3.511V4.43495C3.94217 4.80453 3.75739 4.98932 3.4494 4.98932C3.32621 5.05091 3.26461 5.05091 3.14142 4.98932ZM0 1.29353V7.76116L13.4896 13.9208V7.69956C13.4896 6.52923 12.5657 5.11251 11.5185 4.61974L1.7863 0.184789C1.53991 0.0615965 1.29353 0 1.04714 0C0.431175 0 0 0.492772 0 1.29353Z" fill="url(#paint2_linear)"/>
<path d="M15.6455 16.8773V20.9427C15.6455 21.805 16.3231 22.8522 17.1238 23.2218L24.5154 26.6096C24.7002 26.6712 24.885 26.7328 25.0082 26.7328C25.193 26.7328 25.4394 26.6712 25.5625 26.4864C25.7473 26.3016 25.8089 25.9936 25.8089 25.7472V18.6636C25.8089 17.8013 25.1314 16.7541 24.3306 16.3845L20.6964 14.7214C20.758 14.7214 15.6455 16.3229 15.6455 16.8773Z" fill="url(#paint3_linear)"/>
<path d="M15.6455 16.3847V19.095L27.1025 13.7977C28.1496 13.3049 29.0735 11.8882 29.0735 10.7179V10.2251L15.6455 16.3847Z" fill="url(#paint4_linear)"/>
<path d="M25.1314 4.49654V3.5726C25.1314 3.01823 25.4393 2.58705 25.9321 2.34067L27.3488 1.7247C27.78 1.53991 28.1496 1.7247 28.1496 2.21747V3.14142C28.1496 3.69579 27.8416 4.12696 27.3488 4.37335L25.9321 4.98932C25.8089 5.05091 25.7473 5.05091 25.6241 5.05091C25.3778 5.05091 25.1314 4.86612 25.1314 4.49654ZM27.2872 0.184789L17.6166 4.61974C16.5695 5.11251 15.6455 6.52923 15.6455 7.69956V13.9824L29.1351 7.82275V1.29353C29.1351 0.492772 28.704 0 28.088 0C27.78 0 27.5336 0.0615965 27.2872 0.184789Z" fill="url(#paint5_linear)"/>
<path d="M38.744 21.8668C38.9288 22.0516 39.0519 22.298 39.0519 22.606C39.0519 22.914 38.9288 23.1603 38.744 23.3451C38.5592 23.5299 38.2512 23.5915 37.8816 23.5915H37.2041V24.4539H36.8345V21.5588H37.9432C38.2512 21.5588 38.4976 21.682 38.744 21.8668ZM38.436 23.0372C38.5592 22.914 38.6208 22.7908 38.6208 22.5444C38.6208 22.3596 38.5592 22.1748 38.436 22.0516C38.3128 21.9284 38.128 21.8668 37.8816 21.8668H37.2041V23.0987H37.8816C38.128 23.1603 38.3128 23.1603 38.436 23.0372Z" fill="black"/>
<path d="M41.2697 23.7146H39.7914L39.4834 24.3922H39.0522L40.3458 21.6204H40.7153L42.0089 24.3922H41.5777L41.2697 23.7146ZM41.1465 23.3451L40.5306 21.9899L39.9146 23.3451H41.1465Z" fill="black"/>
<path d="M43.3025 23.4067V24.3923H42.933V23.4067L41.8242 21.5588H42.2554L43.1793 23.0372L44.1033 21.5588H44.4729L43.3025 23.4067Z" fill="black"/>
<path d="M47.3678 24.3923V22.3596L46.3207 24.0227H46.1359L45.1503 22.3596V24.3923H44.7808V21.5588H45.0887L46.2591 23.5299L47.4294 21.5588H47.7374V24.3307H47.3678V24.3923Z" fill="black"/>
<path d="M50.6323 24.0227V24.3923H48.5996V21.5588H50.5707V21.9284H48.9692V22.7908H50.3859V23.1603H48.9692V24.0227H50.6323Z" fill="black"/>
<path d="M53.6507 21.5588V24.3307H53.3427L51.6796 22.2364V24.3307H51.3101V21.5588H51.618L53.2811 23.6531V21.5588H53.6507Z" fill="black"/>
<path d="M55.0671 21.9284H54.0815V21.5588H56.4222V21.9284H55.4367V24.3923H55.0671V21.9284Z" fill="black"/>
<path d="M58.147 24.3305C57.9622 24.2689 57.7774 24.2073 57.7158 24.0841L57.839 23.7761C57.9622 23.8993 58.0854 23.9609 58.2702 24.0225C58.455 24.0841 58.5782 24.0841 58.763 24.0841C59.0093 24.0841 59.1941 24.0225 59.2557 23.9609C59.3789 23.8993 59.4405 23.7761 59.4405 23.6529C59.4405 23.5298 59.4405 23.4682 59.3173 23.4066C59.2557 23.345 59.1941 23.2834 59.0709 23.2834C59.0093 23.2834 58.8246 23.2218 58.7014 23.1602C58.5166 23.0986 58.3318 23.037 58.2086 23.037C58.0854 22.9754 57.9622 22.9138 57.9006 22.7906C57.839 22.6674 57.7774 22.5442 57.7774 22.3594C57.7774 22.2362 57.839 22.0514 57.9006 21.9282C57.9622 21.8051 58.0854 21.6819 58.2702 21.6203C58.455 21.5587 58.6398 21.4971 58.8862 21.4971C59.0709 21.4971 59.1941 21.4971 59.3789 21.5587C59.5637 21.6203 59.6869 21.6819 59.8101 21.7435L59.6869 22.0514C59.5637 21.9898 59.4405 21.9282 59.3173 21.8666C59.1941 21.8051 59.0709 21.8051 58.9478 21.8051C58.7014 21.8051 58.5782 21.8666 58.455 21.9282C58.3318 21.9898 58.2702 22.113 58.2702 22.2362C58.2702 22.3594 58.3318 22.421 58.3934 22.4826C58.455 22.5442 58.5166 22.6058 58.6398 22.6058C58.763 22.6674 58.8862 22.6674 59.0094 22.729C59.1941 22.7906 59.3789 22.8522 59.5021 22.8522C59.6253 22.9138 59.7485 22.9754 59.8101 23.0986C59.9333 23.2218 59.9333 23.345 59.9333 23.5298C59.9333 23.6529 59.8717 23.8377 59.8101 23.9609C59.7485 24.0841 59.6253 24.2073 59.4405 24.2689C59.2557 24.3305 59.0709 24.3921 58.8246 24.3921C58.5166 24.3921 58.3318 24.3921 58.147 24.3305Z" fill="black"/>
<path d="M62.3974 24.0227V24.3923H60.3647V21.5588H62.3358V21.9284H60.7343V22.7908H62.151V23.1603H60.7343V24.0227H62.3974Z" fill="black"/>
<path d="M64.9226 24.3923L64.3066 23.5299C64.245 23.5299 64.1834 23.5299 64.1218 23.5299H63.4443V24.3923H63.0747V21.5588H64.1834C64.553 21.5588 64.861 21.6204 65.0458 21.8052C65.2306 21.99 65.3538 22.2364 65.3538 22.5444C65.3538 22.7908 65.2922 22.914 65.169 23.0987C65.0458 23.2219 64.9226 23.3451 64.7378 23.4067L65.4154 24.3307H64.9226V24.3923ZM64.7378 23.0372C64.861 22.914 64.9226 22.7908 64.9226 22.5444C64.9226 22.3596 64.861 22.1748 64.7378 22.0516C64.6146 21.9284 64.4298 21.8668 64.1834 21.8668H63.4443V23.0987H64.1218C64.4298 23.2219 64.6146 23.1603 64.7378 23.0372Z" fill="black"/>
<path d="M68.372 21.5588L67.1401 24.3307H66.7705L65.5386 21.5588H65.9697L66.9553 23.8379L67.9408 21.5588H68.372Z" fill="black"/>
<path d="M68.7417 21.5588H69.1113V24.3307H68.7417V21.5588Z" fill="black"/>
<path d="M70.4662 24.2075C70.2198 24.0843 70.035 23.8995 69.9118 23.7147C69.7886 23.5299 69.7271 23.2835 69.7271 22.9756C69.7271 22.7292 69.7886 22.4828 69.9118 22.2364C70.035 21.99 70.2198 21.8668 70.4662 21.7436C70.7126 21.6204 70.959 21.5588 71.2054 21.5588C71.4518 21.5588 71.6365 21.6204 71.8213 21.682C72.0061 21.7436 72.1293 21.8668 72.3141 21.99L72.0677 22.2364C71.8829 21.99 71.5749 21.9284 71.267 21.9284C71.0822 21.9284 70.8974 21.99 70.7126 22.0516C70.5278 22.1748 70.4046 22.298 70.343 22.4212C70.2198 22.606 70.2198 22.7908 70.2198 22.9756C70.2198 23.1603 70.2814 23.3451 70.343 23.5299C70.4662 23.7147 70.5894 23.8379 70.7126 23.8995C70.8974 24.0227 71.0822 24.0227 71.267 24.0227C71.5749 24.0227 71.8213 23.8995 72.0677 23.7147L72.3141 23.9611C72.1909 24.0843 72.0061 24.2075 71.8213 24.2691C71.6365 24.3307 71.4518 24.3923 71.2054 24.3923C70.959 24.3923 70.7126 24.3307 70.4662 24.2075Z" fill="black"/>
<path d="M74.9013 24.0227V24.3923H72.8687V21.5588H74.8397V21.9284H73.2998V22.7908H74.7165V23.1603H73.2998V24.0227H74.9013Z" fill="black"/>
<path d="M78.597 21.8668C78.7818 22.0516 78.905 22.298 78.905 22.606C78.905 22.914 78.7818 23.1603 78.597 23.3451C78.4122 23.5299 78.1042 23.5915 77.7346 23.5915H77.0571V24.4539H76.6875V21.5588H77.7962C78.1042 21.5588 78.3506 21.682 78.597 21.8668ZM78.289 23.0372C78.4122 22.914 78.4738 22.7908 78.4738 22.5444C78.4738 22.3596 78.4122 22.1748 78.289 22.0516C78.1658 21.9284 77.981 21.8668 77.7346 21.8668H77.0571V23.0987H77.7346C77.981 23.1603 78.1658 23.1603 78.289 23.0372Z" fill="black"/>
<path d="M81.369 24.3923L80.753 23.5299C80.6914 23.5299 80.6298 23.5299 80.5682 23.5299H79.8906V24.3923H79.4595V21.5588H80.5682C80.9378 21.5588 81.1842 21.6204 81.4306 21.8052C81.6769 21.99 81.7385 22.2364 81.7385 22.5444C81.7385 22.7908 81.6769 22.914 81.5537 23.0987C81.4306 23.2219 81.3074 23.3451 81.1226 23.4067L81.8001 24.3307H81.369V24.3923ZM81.1226 23.0372C81.2458 22.914 81.3074 22.7908 81.3074 22.5444C81.3074 22.3596 81.2458 22.1748 81.1226 22.0516C80.9994 21.9284 80.8146 21.8668 80.5682 21.8668H79.8906V23.0987H80.5682C80.8146 23.2219 80.9994 23.1603 81.1226 23.0372Z" fill="black"/>
<path d="M82.8471 24.2075C82.6007 24.0843 82.4159 23.8995 82.2927 23.7147C82.1695 23.4683 82.1079 23.2835 82.1079 22.9756C82.1079 22.7292 82.1695 22.4828 82.2927 22.2364C82.4159 21.99 82.6007 21.8668 82.8471 21.7436C83.0935 21.6204 83.3398 21.5588 83.5862 21.5588C83.8942 21.5588 84.1406 21.6204 84.3254 21.7436C84.5718 21.8668 84.7566 22.0516 84.8798 22.2364C85.0029 22.4828 85.0645 22.6676 85.0645 22.9756C85.0645 23.2219 85.0029 23.4683 84.8798 23.7147C84.7566 23.9611 84.5718 24.0843 84.3254 24.2075C84.079 24.3307 83.8326 24.3923 83.5862 24.3923C83.3398 24.3923 83.0935 24.3307 82.8471 24.2075ZM84.2022 23.8995C84.387 23.7763 84.5102 23.6531 84.5718 23.5299C84.695 23.3451 84.695 23.1603 84.695 22.9756C84.695 22.7908 84.6334 22.606 84.5718 22.4212C84.4486 22.2364 84.3254 22.1132 84.2022 22.0516C84.0174 21.9284 83.8326 21.9284 83.6478 21.9284C83.463 21.9284 83.2782 21.99 83.0934 22.0516C82.9087 22.1748 82.7855 22.298 82.7239 22.4212C82.6007 22.606 82.6007 22.7908 82.6007 22.9756C82.6007 23.1603 82.6623 23.3451 82.7239 23.5299C82.8471 23.7147 82.9703 23.8379 83.0934 23.8995C83.2782 24.0227 83.463 24.0227 83.6478 24.0227C83.8326 24.0843 84.0174 24.0227 84.2022 23.8995Z" fill="black"/>
<path d="M88.083 21.5588L86.851 24.3307H86.4814L85.2495 21.5588H85.6807L86.6662 23.8379L87.6518 21.5588H88.083Z" fill="black"/>
<path d="M88.4526 21.5588H88.8222V24.3307H88.4526V21.5588Z" fill="black"/>
<path d="M89.6846 21.5588H90.8549C91.1629 21.5588 91.4093 21.6204 91.6557 21.7436C91.902 21.8668 92.0868 22.0516 92.21 22.2364C92.3332 22.4212 92.3948 22.6676 92.3948 22.9756C92.3948 23.2219 92.3332 23.4683 92.21 23.7147C92.0868 23.8995 91.902 24.0843 91.6557 24.2075C91.4093 24.3307 91.1629 24.3923 90.8549 24.3923H89.6846V21.5588ZM90.7933 24.0227C91.0397 24.0227 91.2245 23.9611 91.4093 23.8995C91.5941 23.8379 91.7173 23.7147 91.7788 23.5299C91.902 23.3451 91.902 23.1603 91.902 22.9756C91.902 22.7908 91.8404 22.606 91.7788 22.4212C91.6557 22.2364 91.5325 22.1132 91.4093 22.0516C91.2245 21.99 91.0397 21.9284 90.7933 21.9284H90.0541V24.0227H90.7933Z" fill="black"/>
<path d="M94.9819 24.0227V24.3923H92.9492V21.5588H94.9203V21.9284H93.3188V22.7908H94.7355V23.1603H93.3188V24.0227H94.9819Z" fill="black"/>
<path d="M97.5071 24.3923L96.8911 23.5299C96.8295 23.5299 96.7679 23.5299 96.7063 23.5299H96.0288V24.3923H95.6592V21.5588H96.7679C97.1375 21.5588 97.3839 21.6204 97.6303 21.8052C97.8767 21.99 97.9382 22.2364 97.9382 22.5444C97.9382 22.7908 97.8766 22.914 97.7535 23.0987C97.6303 23.2219 97.5071 23.3451 97.3223 23.4067L97.9998 24.3307H97.5071V24.3923ZM97.3223 23.0372C97.4455 22.914 97.5071 22.7908 97.5071 22.5444C97.5071 22.3596 97.4455 22.1748 97.3223 22.0516C97.1991 21.9284 97.0143 21.8668 96.7679 21.8668H96.0904V23.0987H96.7679C96.9527 23.2219 97.1375 23.1603 97.3223 23.0372Z" fill="black"/>
<defs>
<linearGradient id="paint0_linear" x1="3.24229" y1="20.7489" x2="13.4573" y2="20.7489" gradientUnits="userSpaceOnUse">
<stop stop-color="#F8951D"/>
<stop offset="0.5" stop-color="#F26424"/>
<stop offset="1" stop-color="#E15C25"/>
</linearGradient>
<linearGradient id="paint1_linear" x1="0" y1="14.6515" x2="13.4614" y2="14.6515" gradientUnits="userSpaceOnUse">
<stop stop-color="#F8951D"/>
<stop offset="0.5" stop-color="#F26424"/>
<stop offset="1" stop-color="#E15C25"/>
</linearGradient>
<linearGradient id="paint2_linear" x1="0" y1="6.98566" x2="13.4614" y2="6.98566" gradientUnits="userSpaceOnUse">
<stop stop-color="#F8951D"/>
<stop offset="0.5" stop-color="#F26424"/>
<stop offset="1" stop-color="#E15C25"/>
</linearGradient>
<linearGradient id="paint3_linear" x1="15.6217" y1="20.7476" x2="25.8345" y2="20.7476" gradientUnits="userSpaceOnUse">
<stop stop-color="#F8951D"/>
<stop offset="0.5" stop-color="#F26424"/>
<stop offset="1" stop-color="#E15C25"/>
</linearGradient>
<linearGradient id="paint4_linear" x1="15.6169" y1="14.6527" x2="29.0771" y2="14.6527" gradientUnits="userSpaceOnUse">
<stop stop-color="#F8951D"/>
<stop offset="0.5" stop-color="#F26424"/>
<stop offset="1" stop-color="#E15C25"/>
</linearGradient>
<linearGradient id="paint5_linear" x1="15.6181" y1="6.98566" x2="29.0783" y2="6.98566" gradientUnits="userSpaceOnUse">
<stop stop-color="#F8951D"/>
<stop offset="0.5" stop-color="#F26424"/>
<stop offset="1" stop-color="#E15C25"/>
</linearGradient>
</defs>
</svg>
