<svg width="256" height="243" viewBox="0 0 256 243" fill="none" xmlns="http://www.w3.org/2000/svg">
<path d="M247.916 242.759H8.08421C3.63041 242.759 0 239.125 0 234.667V8.09195C0 3.63389 3.63041 0 8.08421 0H247.916C252.407 0 256 3.63389 256 8.09195V234.667C256 239.125 252.407 242.759 247.916 242.759Z" fill="#FAFAFE"/>
<path d="M199.863 152.263C200.344 150.711 199.463 149.073 197.924 148.613L147.912 133.943C146.373 133.483 144.729 134.392 144.248 135.944L143.727 137.622L199.341 153.942L199.863 152.263Z" fill="#C2E812"/>
<path d="M199.369 153.978L143.791 137.478L141.87 143.868L197.448 160.367L199.369 153.978Z" fill="#6E737D"/>
<path d="M142.011 143.873L135.798 164.322C135.318 165.871 136.198 167.505 137.734 167.964L187.661 182.599C189.197 183.058 190.839 182.151 191.319 180.603L197.531 160.154L142.011 143.873Z" fill="#C2E812"/>
<path d="M151.886 164.313L143.323 161.814C142.283 161.511 141.708 160.402 142.025 159.354C142.342 158.307 143.455 157.713 144.494 158.015L153.057 160.515C154.097 160.817 154.672 161.926 154.355 162.974C154.011 164.005 152.908 164.643 151.886 164.313Z" fill="#E6EFFF"/>
<path d="M178.255 174.325C180.341 174.939 182.552 173.725 183.192 171.612C183.833 169.5 182.66 167.289 180.574 166.674C178.487 166.06 176.276 167.274 175.636 169.387C174.995 171.5 176.168 173.71 178.255 174.325Z" fill="#FF6B6B"/>
<path d="M183.957 176.034C186.043 176.649 188.254 175.434 188.895 173.322C189.535 171.209 188.363 168.998 186.276 168.384C184.189 167.769 181.978 168.984 181.338 171.097C180.698 173.209 181.87 175.42 183.957 176.034Z" fill="#E6EFFF"/>
<path d="M65.5903 87.9097C71.8917 84.5462 74.2733 76.7111 70.9097 70.4097C67.5462 64.1083 59.7111 61.7267 53.4097 65.0903C47.1083 68.4538 44.7267 76.2889 48.0903 82.5903C51.4538 88.8917 59.2889 91.2733 65.5903 87.9097Z" fill="#FBA927"/>
<path d="M64.0866 85.0929C68.8323 82.5597 70.6259 76.659 68.0927 71.9133C65.5596 67.1676 59.6589 65.374 54.9132 67.9071C50.1675 70.4403 48.3738 76.341 50.907 81.0867C53.4402 85.8324 59.3408 87.626 64.0866 85.0929Z" fill="#FDCD5C"/>
<path d="M59.4946 88.1842C55.3018 88.1842 51.2702 85.9265 49.1738 81.9917C46.1421 76.3152 48.303 69.2197 53.9794 66.1879C56.7209 64.7043 59.8817 64.414 62.8811 65.3171C65.8806 66.2202 68.3318 68.2521 69.7832 70.9936C71.2668 73.735 71.5571 76.8958 70.654 79.8953C69.7509 82.8947 67.7513 85.3459 64.9776 86.7973C63.2359 87.7326 61.3653 88.1842 59.4946 88.1842ZM49.7221 81.7014C52.5926 87.0876 59.3011 89.1195 64.6873 86.249C67.2997 84.8622 69.2026 82.54 70.0735 79.7017C70.9443 76.8635 70.654 73.8963 69.2349 71.2838C67.848 68.6714 65.5259 66.7685 62.6876 65.8977C59.8494 65.0268 56.8822 65.3171 54.2697 66.7362C48.8835 69.6067 46.8516 76.3152 49.7221 81.7014Z" fill="#FDCD5C"/>
<path d="M55.8825 71.4451L55.431 70.6388L56.8501 69.8647L57.3016 70.7033C58.6885 70.284 59.8173 70.8968 60.6236 72.4127L60.8172 72.7675L59.1723 73.6383L58.9143 73.1868C58.495 72.3804 58.0112 72.2514 57.4629 72.574C56.9146 72.8642 56.7533 73.348 57.1726 74.1221C58.3982 76.412 61.8492 74.7026 63.5586 77.8634C64.3649 79.3792 64.2359 80.6693 63.1393 81.6047L63.5586 82.411L62.1395 83.185L61.688 82.3465C60.3011 82.7658 59.14 82.1207 58.3337 80.6371L57.9144 79.863L59.5593 78.9922L60.0108 79.863C60.4301 80.6693 60.9462 80.7661 61.4945 80.4436C62.0428 80.1533 62.2363 79.6695 61.817 78.8955C60.6559 76.6055 57.1726 78.3149 55.4955 75.1542C54.6892 73.6705 54.7859 72.3804 55.8825 71.4451Z" fill="#FBA927"/>
<path d="M226.176 136.824C230.497 134.517 232.13 129.145 229.824 124.824C227.517 120.503 222.145 118.87 217.824 121.176C213.503 123.483 211.87 128.855 214.176 133.176C216.483 137.497 221.855 139.13 226.176 136.824Z" fill="#FBA927"/>
<path d="M225.145 134.892C228.399 133.155 229.629 129.109 227.892 125.855C226.155 122.601 222.109 121.371 218.855 123.108C215.6 124.845 214.371 128.891 216.108 132.145C217.845 135.399 221.891 136.629 225.145 134.892Z" fill="#FDCD5C"/>
<path d="M221.996 137.012C219.121 137.012 216.357 135.464 214.919 132.766C212.84 128.873 214.322 124.008 218.214 121.929C220.094 120.911 222.262 120.712 224.319 121.332C226.375 121.951 228.056 123.344 229.051 125.224C230.069 127.104 230.268 129.271 229.648 131.328C229.029 133.385 227.658 135.066 225.756 136.061C224.562 136.702 223.279 137.012 221.996 137.012ZM215.295 132.567C217.264 136.26 221.864 137.653 225.557 135.685C227.348 134.734 228.653 133.142 229.25 131.195C229.848 129.249 229.648 127.215 228.675 125.423C227.724 123.632 226.132 122.327 224.186 121.73C222.24 121.133 220.205 121.332 218.414 122.305C214.72 124.273 213.327 128.873 215.295 132.567Z" fill="#FDCD5C"/>
<path d="M219.52 125.534L219.21 124.981L220.183 124.45L220.493 125.025C221.444 124.738 222.218 125.158 222.771 126.197L222.903 126.441L221.775 127.038L221.598 126.728C221.311 126.175 220.979 126.087 220.603 126.308C220.227 126.507 220.117 126.839 220.404 127.369C221.245 128.94 223.611 127.767 224.783 129.935C225.336 130.974 225.248 131.859 224.496 132.5L224.783 133.053L223.81 133.584L223.5 133.009C222.549 133.296 221.753 132.854 221.2 131.837L220.913 131.306L222.041 130.709L222.35 131.306C222.638 131.859 222.992 131.925 223.368 131.704C223.744 131.505 223.876 131.173 223.589 130.643C222.793 129.072 220.404 130.244 219.254 128.077C218.701 127.06 218.768 126.175 219.52 125.534Z" fill="#FBA927"/>
<path d="M54.7464 179.732C57.6461 182.479 62.1829 182.395 64.8798 179.545C67.5766 176.695 67.4122 172.158 64.5125 169.412C61.6128 166.665 57.076 166.749 54.3792 169.599C51.6823 172.449 51.8467 176.986 54.7464 179.732Z" fill="#FBA927"/>
<path d="M55.9526 178.458C58.1365 180.526 61.5532 180.463 63.5841 178.317C65.615 176.171 65.491 172.754 63.3072 170.686C61.1234 168.617 57.7067 168.68 55.6757 170.826C53.6448 172.973 53.7688 176.389 55.9526 178.458Z" fill="#FDCD5C"/>
<path d="M53.5319 176.576C52.7793 174.355 53.2337 171.833 54.9105 170.047C57.3281 167.467 61.4182 167.393 64.0189 169.878C65.2851 171.075 66.0039 172.699 66.0711 174.442C66.1382 176.186 65.518 177.833 64.3481 179.072C63.184 180.328 61.5869 181.025 59.8598 181.062C58.1326 181.098 56.4948 180.46 55.2396 179.241C54.439 178.479 53.8677 177.566 53.5319 176.576ZM55.1603 170.287C52.8652 172.732 53.0091 176.634 55.4736 178.993C56.6662 180.138 58.2193 180.747 59.8565 180.721C61.4937 180.695 62.9899 180.032 64.0982 178.831C65.2124 177.648 65.7885 176.092 65.7334 174.439C65.6784 172.787 64.9943 171.266 63.785 170.126C61.3205 167.766 57.4555 167.842 55.1603 170.287Z" fill="#FDCD5C"/>
<path d="M61.6095 171.782L61.9481 171.403L62.6095 172.027L62.254 172.411C62.7244 173.078 62.6097 173.784 61.9653 174.473L61.8154 174.636L61.0626 173.909L61.2513 173.694C61.5958 173.333 61.5753 173.053 61.3075 172.816C61.0566 172.574 60.775 172.57 60.4473 172.926C59.4753 173.97 60.9933 175.516 59.6549 176.967C59.0105 177.655 58.3142 177.807 57.6273 177.382L57.2828 177.743L56.6214 177.12L56.9769 176.736C56.5065 176.069 56.6322 175.34 57.2597 174.657L57.5874 174.302L58.3402 175.029L57.9679 175.418C57.6234 175.779 57.6666 176.071 57.9343 176.308C58.1853 176.55 58.4728 176.571 58.8004 176.215C59.7841 175.206 58.2602 173.642 59.6045 172.209C60.2321 171.526 60.9226 171.357 61.6095 171.782Z" fill="#FBA927"/>
<path d="M230.863 61.8634C233.346 58.8278 232.857 54.3113 229.769 51.7755C226.682 49.2397 222.165 49.645 219.681 52.6806C217.198 55.7162 217.687 60.2327 220.775 62.7685C223.862 65.3042 228.379 64.899 230.863 61.8634Z" fill="#FBA927"/>
<path d="M229.483 60.7299C231.353 58.4437 230.984 55.0423 228.659 53.1326C226.334 51.2228 222.932 51.528 221.062 53.8142C219.191 56.1004 219.56 59.5018 221.885 61.4115C224.211 63.3213 227.612 63.0161 229.483 60.7299Z" fill="#FDCD5C"/>
<path d="M227.8 63.2988C225.67 64.174 223.134 63.8511 221.217 62.2595C218.448 59.9649 218.009 55.8546 220.235 53.1063C221.306 51.769 222.849 50.9595 224.568 50.7992C226.287 50.6389 227.972 51.1751 229.302 52.286C230.649 53.3902 231.481 54.9596 231.672 56.695C231.863 58.4303 231.378 60.1118 230.284 61.4392C229.602 62.2851 228.75 62.9084 227.8 63.2988ZM221.433 61.9953C224.057 64.1739 227.904 63.8216 230.018 61.217C231.044 59.9565 231.508 58.3618 231.336 56.7163C231.163 55.0709 230.373 53.6012 229.087 52.5501C227.817 51.4923 226.225 50.9957 224.595 51.139C222.965 51.2823 221.521 52.0513 220.501 53.3284C218.387 55.933 218.808 59.8168 221.433 61.9953Z" fill="#FDCD5C"/>
<path d="M222.347 55.415L221.944 55.0928L222.493 54.3998L222.903 54.7386C223.513 54.2351 224.216 54.3172 224.953 54.9318L225.127 55.0746L224.485 55.8643L224.257 55.6849C223.87 55.3561 223.597 55.3898 223.39 55.6696C223.176 55.9329 223.2 56.2157 223.58 56.5279C224.696 57.4547 226.069 55.8585 227.619 57.1341C228.355 57.7486 228.57 58.4405 228.219 59.1498L228.606 59.4787L228.057 60.1717L227.647 59.8329C227.037 60.3364 226.31 60.2443 225.581 59.6464L225.201 59.3342L225.843 58.5445L226.26 58.8999C226.647 59.2288 226.929 59.1718 227.136 58.8919C227.35 58.6287 227.343 58.3392 226.963 58.0269C225.879 57.0868 224.49 58.6896 222.956 57.4074C222.227 56.8095 221.996 56.1244 222.347 55.415Z" fill="#FBA927"/>
<rect x="83.5522" y="91.8286" width="88.0559" height="57.4278" fill="#FDCD5C"/>
<path d="M165.973 88H89.1879C84.6573 88 81 91.6701 81 96.1356V144.949C81 149.451 84.6937 153.085 89.1879 153.085H165.973C170.467 153.085 174.161 149.469 174.161 144.949V96.1356C174.161 91.6701 170.503 88 165.973 88ZM164.826 93.4237C163.152 95.0689 134.367 123.525 133.366 124.52C131.82 126.057 129.764 126.906 127.58 126.906C125.397 126.906 123.341 126.057 121.794 124.52C121.121 123.851 92.6451 95.7017 90.3343 93.4237H164.826ZM86.4586 143.846V97.2384L110.04 120.56L86.4586 143.846ZM90.3343 147.661L113.916 124.375L117.937 128.335C120.52 130.902 123.941 132.312 127.58 132.312C131.219 132.312 134.658 130.902 137.224 128.353L141.245 124.375L164.826 147.661H90.3343ZM168.702 143.846L145.121 120.56L168.702 97.2384V143.846Z" fill="#FBA927"/>
<circle cx="169.5" cy="88.5" r="13.5" fill="#C2E812"/>
<path d="M169.445 94V84.6484H169.398L166.484 86.6953V84.7969L169.43 82.7266H171.422V94H169.445Z" fill="white"/>
<path d="M256 18.8812H0V8.09196C0 3.63389 3.63041 0 8.08421 0H247.916C252.407 0 256 3.63389 256 8.09196V18.8812Z" fill="#415E94"/>
<path d="M14.8214 13.4866C17.0538 13.4866 18.8635 11.6752 18.8635 9.44063C18.8635 7.2061 17.0538 5.39465 14.8214 5.39465C12.589 5.39465 10.7793 7.2061 10.7793 9.44063C10.7793 11.6752 12.589 13.4866 14.8214 13.4866Z" fill="#FF6E5A"/>
<path d="M28.295 13.4866C30.5274 13.4866 32.3371 11.6752 32.3371 9.44063C32.3371 7.2061 30.5274 5.39465 28.295 5.39465C26.0626 5.39465 24.2529 7.2061 24.2529 9.44063C24.2529 11.6752 26.0626 13.4866 28.295 13.4866Z" fill="#FFE071"/>
<path d="M41.7682 13.4866C44.0006 13.4866 45.8103 11.6752 45.8103 9.44063C45.8103 7.2061 44.0006 5.39465 41.7682 5.39465C39.5358 5.39465 37.7261 7.2061 37.7261 9.44063C37.7261 11.6752 39.5358 13.4866 41.7682 13.4866Z" fill="#C2E812"/>
<path d="M25.7107 29.6704H11.9776C11.2327 29.6704 10.6289 30.2742 10.6289 31.0191C10.6289 31.7639 11.2327 32.3677 11.9776 32.3677H25.7107C26.4555 32.3677 27.0593 31.7639 27.0593 31.0191C27.0593 30.2742 26.4555 29.6704 25.7107 29.6704Z" fill="#6E737D"/>
<path d="M52.6584 29.6704H38.9253C38.1805 29.6704 37.5767 30.2742 37.5767 31.0191C37.5767 31.7639 38.1805 32.3677 38.9253 32.3677H52.6584C53.4033 32.3677 54.0071 31.7639 54.0071 31.0191C54.0071 30.2742 53.4033 29.6704 52.6584 29.6704Z" fill="#ACB3B7"/>
<path d="M243.872 29.6704H230.139C229.394 29.6704 228.791 30.2742 228.791 31.0191C228.791 31.7639 229.394 32.3677 230.139 32.3677H243.872C244.617 32.3677 245.221 31.7639 245.221 31.0191C245.221 30.2742 244.617 29.6704 243.872 29.6704Z" fill="#ACB3B7"/>
<path d="M216.925 29.6704H203.192C202.447 29.6704 201.843 30.2742 201.843 31.0191C201.843 31.7639 202.447 32.3677 203.192 32.3677H216.925C217.67 32.3677 218.274 31.7639 218.274 31.0191C218.274 30.2742 217.67 29.6704 216.925 29.6704Z" fill="#ACB3B7"/>
<path d="M189.977 29.6704H176.244C175.499 29.6704 174.896 30.2742 174.896 31.0191C174.896 31.7639 175.499 32.3677 176.244 32.3677H189.977C190.722 32.3677 191.326 31.7639 191.326 31.0191C191.326 30.2742 190.722 29.6704 189.977 29.6704Z" fill="#ACB3B7"/>
<path d="M206 215.362H50V218.362H206V215.362Z" fill="#E1E3F0"/>
<path d="M206 223.362H50V226.362H206V223.362Z" fill="#E1E3F0"/>
</svg>
