<svg width="164" height="191" viewBox="0 0 164 191" fill="none" xmlns="http://www.w3.org/2000/svg">
<path d="M0 29.7007C0 21.4164 6.71573 14.7007 15 14.7007H148.545C156.829 14.7007 163.545 21.4164 163.545 29.7007V163.245C163.545 171.529 156.829 178.245 148.545 178.245H15C6.71574 178.245 0 171.529 0 163.245V29.7007Z" fill="#C2E812"/>
<path d="M112.379 33.3358L57.6483 2.48776L52.1753 9.95099L56.1557 33.3358L102.428 62.1936L114.369 55.7255L115.364 43.2868L112.379 33.3358Z" fill="#D1D9DD"/>
<path d="M117.354 42.7892L109.393 48.2622L105.413 36.321C107.735 35.1601 112.478 32.8382 112.876 32.8382C113.274 32.8382 113.706 33.5016 113.871 33.8333L115.364 35.8235L116.857 38.8088L117.354 40.799V42.7892Z" fill="#D1D9DD"/>
<path d="M112.636 32.594C115.257 34.1155 117.354 37.8021 117.354 40.9035V41.9568C117.354 38.3287 114.85 33.8814 111.705 32.0674L112.636 32.594Z" fill="#D1D5D6"/>
<path d="M112.928 186.963L113.335 44.2976L117.354 41.9569V40.9036L116.946 183.569V184.622C116.946 186.436 116.306 187.723 115.257 188.308C113.918 189.069 112.578 189.888 111.239 190.649C112.287 190.064 112.928 188.777 112.928 186.963Z" fill="#B7BFC3"/>
<path d="M106.463 189.83C106.638 189.888 106.754 190.005 106.871 190.064C106.929 190.064 106.929 190.122 106.987 190.122C107.104 190.181 107.278 190.239 107.395 190.298H107.453C107.569 190.356 107.686 190.356 107.802 190.415H107.861C107.977 190.415 108.094 190.473 108.21 190.473H108.268C108.385 190.473 108.501 190.473 108.618 190.473H108.676C108.793 190.473 108.909 190.473 109.026 190.415H109.084C109.317 190.356 109.491 190.298 109.724 190.181C109.724 190.181 109.783 190.181 109.783 190.122C109.899 190.064 109.957 190.005 110.074 189.947C110.074 189.947 110.074 189.947 110.132 189.888C110.19 189.83 110.307 189.771 110.365 189.654L110.423 189.596C110.482 189.537 110.54 189.42 110.598 189.362C110.598 189.362 110.598 189.303 110.656 189.303C110.715 189.186 110.773 189.069 110.831 188.952C110.889 188.835 110.947 188.659 111.006 188.484C111.006 188.425 111.064 188.308 111.064 188.25C111.064 188.191 111.122 188.074 111.122 188.016C111.122 187.899 111.18 187.723 111.18 187.547C111.18 187.547 111.18 187.547 111.18 187.489C111.18 187.313 111.18 187.138 111.18 186.962L111.588 44.2974H113.394L112.928 186.962C112.928 187.021 112.928 187.079 112.928 187.079V187.138C112.928 187.255 112.928 187.43 112.928 187.547C112.928 187.723 112.869 187.899 112.869 188.016V188.074C112.811 188.25 112.811 188.425 112.753 188.601C112.753 188.601 112.753 188.601 112.753 188.659C112.753 188.776 112.695 188.835 112.695 188.893C112.695 188.893 112.695 188.893 112.695 188.952C112.636 189.069 112.636 189.127 112.578 189.244C112.578 189.244 112.578 189.244 112.578 189.303C112.52 189.42 112.462 189.537 112.404 189.596C112.345 189.713 112.287 189.771 112.171 189.888C112.171 189.888 112.171 189.888 112.171 189.947C112.112 190.005 112.054 190.064 112.054 190.122C112.054 190.122 112.054 190.122 111.996 190.181C111.938 190.239 111.879 190.298 111.821 190.356C111.821 190.356 111.763 190.356 111.763 190.415C111.705 190.473 111.646 190.473 111.588 190.532L111.53 190.59C111.472 190.649 111.413 190.649 111.355 190.707C111.355 190.707 111.297 190.707 111.297 190.766C111.239 190.824 111.122 190.824 111.064 190.883C111.006 190.941 110.889 190.941 110.831 190.941H110.773C110.715 190.941 110.656 191 110.598 191C110.54 191 110.54 191 110.482 191C110.423 191 110.365 191 110.307 191H110.249C110.132 191 110.074 191 109.957 191H109.899C109.841 191 109.724 191 109.666 191C109.608 191 109.608 191 109.55 191C109.491 191 109.433 191 109.317 191C109.258 191 109.258 191 109.2 191C109.142 191 109.026 190.941 108.967 190.941H108.909C108.793 190.941 108.676 190.883 108.618 190.824H108.56C108.501 190.824 108.385 190.766 108.327 190.707C108.268 190.707 108.268 190.707 108.21 190.649C108.152 190.59 108.035 190.59 107.977 190.532C107.919 190.532 107.919 190.473 107.861 190.473C107.744 190.415 107.628 190.356 107.511 190.298C107.104 190.181 106.812 190.005 106.463 189.83Z" fill="#E3EBEF"/>
<path d="M52.8808 4.68144C50.2599 3.15999 48.105 4.38885 48.105 7.49026L47.6973 150.155C47.6973 153.198 49.794 156.943 52.4148 158.465L106.346 189.771C108.967 191.293 111.064 190.064 111.122 186.963L111.53 44.2976C111.53 41.2547 109.433 37.5096 106.812 35.9881L52.8808 4.68144Z" fill="#D1D9DD"/>
<path d="M52.3563 4.4472C52.2399 4.33016 52.0651 4.33016 51.9486 4.27164H51.8904C51.7157 4.15461 51.5992 4.15461 51.4827 4.09609H51.4245C51.308 4.09609 51.1915 4.03758 51.075 4.03758C51.0168 4.03758 51.0168 4.03758 50.9585 4.03758C50.8421 4.03758 50.7838 4.03758 50.6673 4.03758C50.6091 4.03758 50.6091 4.03758 50.5509 4.03758C50.4344 4.03758 50.3179 4.03758 50.2014 4.09609H50.1432C50.0849 4.09609 49.9684 4.15461 49.9102 4.15461H49.852C49.7355 4.27164 49.619 4.27164 49.5025 4.33016C49.5025 4.33016 49.4443 4.33016 49.4443 4.38868C49.386 4.4472 49.2695 4.50571 49.2113 4.56423C49.0948 4.68126 49.0366 4.73978 48.9201 4.7983L48.8618 4.85682C48.8036 4.97385 48.7454 5.03237 48.6871 5.1494C48.6871 5.1494 48.6871 5.20792 48.6289 5.20792C48.6289 5.26644 48.5706 5.38347 48.5124 5.50051C48.5124 5.50051 48.5124 5.55902 48.4542 5.55902C48.3959 5.67606 48.3377 5.79309 48.3377 5.91013C48.3377 5.96864 48.3377 5.96864 48.3377 6.02716C48.2794 6.1442 48.2794 6.26123 48.2794 6.37826C48.2794 6.43678 48.2794 6.43678 48.2794 6.4953C48.2794 6.67085 48.2212 6.78788 48.2212 6.96344C48.2212 6.96344 48.2212 6.96344 48.2212 7.02195C48.2212 7.1975 48.2212 7.37306 48.2212 7.54861V7.49009V6.43678V6.37826C48.2212 6.20271 48.2212 6.02716 48.2212 5.91013C48.2212 5.79309 48.2794 5.61754 48.2794 5.50051V5.44199V5.38347C48.2212 5.09088 48.2794 4.97385 48.2794 4.85682C48.2794 4.85682 48.2794 4.85682 48.2794 4.7983C48.2794 4.68126 48.3377 4.62275 48.3959 4.50571C48.3959 4.50571 48.3959 4.50571 48.3959 4.4472V4.38868C48.3959 4.33016 48.4542 4.21313 48.4542 4.15461V4.09609C48.5124 3.92054 48.6289 3.74499 48.7454 3.56944C48.7454 3.56944 48.7454 3.51092 48.8036 3.51092C48.9201 3.51092 48.9201 3.4524 48.9783 3.4524C48.9783 3.4524 48.9783 3.4524 48.9783 3.39389C48.9783 3.39389 48.9783 3.39389 49.0366 3.33537C49.0948 3.27685 49.0948 3.21833 49.1531 3.21833C49.1531 3.21833 49.1531 3.21833 49.2113 3.15982C49.2695 3.1013 49.3278 3.04278 49.386 3.04278C49.4443 2.92575 49.5607 2.86723 49.619 2.80871C49.619 2.80871 49.6772 2.80871 49.6772 2.7502C49.7355 2.69168 49.7937 2.69168 49.852 2.63316C49.852 2.63316 49.852 2.63316 49.9102 2.63316H49.9684C50.0267 2.63316 50.0849 2.57465 50.1432 2.57465H50.2014C50.2014 2.57465 50.2014 2.57465 50.2596 2.57465C50.3179 2.57465 50.3761 2.51613 50.4926 2.51613C50.4926 2.51613 50.4926 2.51613 50.5509 2.51613C50.6091 2.51613 50.7256 2.45761 50.8421 2.45761H50.9003C50.7838 2.34058 50.9003 2.34058 50.9585 2.34058H51.0168C51.0168 2.34058 51.0168 2.34058 51.075 2.34058C51.1915 2.34058 51.308 2.34058 51.3662 2.34058C51.3662 2.34058 51.3662 2.34058 51.4245 2.34058C51.541 2.34058 51.5992 2.34058 51.7157 2.34058H51.7739C51.8904 2.34058 52.0069 2.39909 52.1234 2.39909C52.1234 2.39909 52.1234 2.39909 52.1816 2.39909C52.2981 2.39909 52.3563 2.45761 52.4728 2.45761H52.5311H52.5893C52.6475 2.45761 52.764 2.51613 52.8223 2.51613H52.8805C52.8805 2.51613 52.8805 2.51613 52.9388 2.51613C52.9388 2.69168 52.9388 2.69168 52.997 2.69168C53.0552 2.69168 53.0552 2.69168 53.1135 2.7502H53.1717C53.23 2.7502 53.23 2.80871 53.2882 2.80871C53.2882 2.80871 53.3464 2.80871 53.3464 2.86723C53.3464 2.86723 53.4047 2.92575 53.4629 2.92575H53.5212C53.5794 2.98427 53.6376 2.98427 53.6959 3.04278L53.7541 3.1013L107.686 34.408L107.744 34.4665C107.802 34.4665 107.86 34.525 107.86 34.525C107.919 34.525 107.977 34.5836 107.977 34.5836C108.035 34.5836 108.093 34.6421 108.093 34.6421L108.152 34.7006C108.21 34.7006 108.21 34.7591 108.268 34.7591C108.326 34.7591 108.326 34.8176 108.385 34.8176C108.443 34.8176 108.443 34.8761 108.501 34.8761C108.559 34.9347 108.559 34.9347 108.618 34.9932L108.676 35.0517C108.676 35.0517 108.676 35.0517 108.734 35.0517C108.792 35.1102 108.792 35.1102 108.851 35.1687C108.909 35.2272 108.909 35.2272 108.967 35.2858C109.025 35.3443 109.084 35.4028 109.142 35.4028C109.2 35.4613 109.2 35.4613 109.258 35.5198C109.258 35.5198 109.258 35.5198 109.317 35.5784C109.433 35.6954 109.491 35.7539 109.608 35.8709C109.666 35.9295 109.666 35.988 109.724 35.988C109.782 36.0465 109.782 36.0465 109.841 36.105C109.899 36.1635 109.899 36.1635 109.957 36.222C110.074 36.3391 110.132 36.4561 110.248 36.5146L110.307 36.5731L110.365 36.6317C110.423 36.6902 110.423 36.7487 110.481 36.8072C110.54 36.8657 110.54 36.9242 110.598 36.9242C110.598 36.9828 110.656 36.9828 110.656 37.0413C110.656 37.0998 110.714 37.0998 110.714 37.1583C110.714 37.2168 110.773 37.2168 110.773 37.2754C110.773 37.3339 110.831 37.3339 110.831 37.3924C110.831 37.4509 110.889 37.4509 110.889 37.5094C110.889 37.5679 110.947 37.5679 110.947 37.6265C110.947 37.685 111.006 37.685 111.006 37.7435C111.006 37.802 111.064 37.802 111.064 37.8605C111.064 37.919 111.122 37.919 111.122 37.9776C111.122 38.0361 111.18 38.0361 111.18 38.0946C111.18 38.1531 111.238 38.1531 111.238 38.2116C111.238 38.2701 111.297 38.2701 111.297 38.3287C111.297 38.3872 111.355 38.3872 111.355 38.4457C111.355 38.5042 111.413 38.5042 111.413 38.5627C111.413 38.6213 111.471 38.6212 111.471 38.6798C111.471 38.7383 111.53 38.7968 111.53 38.7968C111.53 38.8553 111.588 38.9138 111.588 38.9138C111.588 38.9724 111.646 39.0309 111.646 39.0309C111.646 39.0894 111.704 39.1479 111.704 39.1479C111.704 39.1479 111.704 39.1479 111.704 39.2064C111.704 39.2649 111.763 39.3235 111.763 39.382C111.763 39.4405 111.821 39.499 111.821 39.5575C111.879 39.616 111.879 39.6746 111.937 39.7916C111.937 39.7916 111.937 39.8501 111.996 39.8501C111.996 39.9086 112.054 39.9086 112.054 39.9671C112.112 40.0257 112.112 40.1427 112.17 40.2012C112.229 40.3182 112.229 40.3768 112.287 40.4938C112.287 40.4938 112.287 40.4938 112.287 40.5523C112.345 40.6108 112.345 40.7279 112.345 40.7864C112.403 40.9034 112.403 41.0205 112.462 41.1375V41.196V41.2545C112.462 41.313 112.52 41.4301 112.52 41.4886C112.578 41.6056 112.578 41.7812 112.636 41.8982V41.9567C112.636 42.0738 112.695 42.1908 112.695 42.3078C112.695 42.3664 112.695 42.4834 112.753 42.5419C112.753 42.6004 112.753 42.6004 112.753 42.6589V42.7175C112.753 42.893 112.811 43.01 112.811 43.1856C112.811 43.2441 112.811 43.2441 112.811 43.2441C112.811 43.3026 112.811 43.3611 112.811 43.3611C112.811 43.4197 112.811 43.5367 112.811 43.5952C112.811 43.7122 112.811 43.8293 112.811 43.9463H111.006C111.006 43.7708 111.006 43.5952 111.006 43.4197C111.006 43.3611 111.006 43.3611 111.006 43.3026C111.006 43.1271 110.947 42.9515 110.947 42.776V42.7175C110.947 42.5419 110.889 42.3663 110.831 42.1908C110.831 42.1908 110.831 42.1908 110.831 42.1323C110.773 41.9567 110.714 41.7812 110.656 41.6056V41.5471C110.598 41.3716 110.54 41.196 110.481 40.9619C110.423 40.7864 110.365 40.5523 110.248 40.3768C110.248 40.3768 110.248 40.3768 110.248 40.3182C110.19 40.1427 110.074 39.9671 110.015 39.7331C109.724 39.1479 109.375 38.6212 109.025 38.0946C108.909 37.919 108.792 37.7435 108.618 37.5679C108.501 37.4509 108.385 37.2754 108.268 37.1583C108.21 37.0998 108.21 37.0998 108.152 37.0413C108.035 36.9242 107.919 36.8072 107.802 36.6317C107.686 36.5146 107.511 36.3391 107.336 36.222C107.162 36.105 107.045 35.988 106.87 35.8709C106.696 35.7539 106.579 35.6369 106.404 35.5784L52.8805 4.68126C52.7058 4.56423 52.5311 4.50571 52.3563 4.4472Z" fill="#E3EBEF"/>
<path d="M53.0555 2.75031C53.0555 2.75031 52.9972 2.75031 52.9972 2.69179C52.8807 2.69179 52.8225 2.63327 52.706 2.57476H52.6478C52.5313 2.57476 52.4731 2.51624 52.3566 2.51624C52.3566 2.51624 52.3566 2.51624 52.2983 2.51624C52.1818 2.45772 52.0071 2.39921 51.8324 2.39921C51.7159 2.34069 51.5994 2.34069 51.4829 2.34069H51.4247C51.3082 2.34069 51.1917 2.34069 51.0753 2.34069C51.0753 2.34069 51.0753 2.34069 51.017 2.34069C50.9588 2.34069 50.8423 2.34069 50.7841 2.39921H50.7258C50.6093 2.39921 50.4928 2.39921 50.3764 2.45772C50.2599 2.45772 50.2016 2.51624 50.0852 2.57476C50.0852 2.57476 50.0269 2.57476 50.0269 2.63327C49.9687 2.63327 49.9104 2.63327 49.8522 2.69179C49.8522 2.69179 49.7939 2.69179 49.7939 2.75031C49.7939 2.75031 49.7939 2.75031 49.8522 2.75031L49.9104 2.69179C50.0852 2.51624 50.3764 2.39921 50.6093 2.22365C50.6676 2.16514 50.7258 2.16514 50.7841 2.10662C51.7742 1.52145 52.7643 0.936275 53.7544 0.351103C53.7544 0.351103 53.7544 0.351103 53.8126 0.351103C53.8126 0.351103 53.8126 0.351103 53.8708 0.351103C53.9291 0.292586 53.9873 0.292586 54.1038 0.234069C54.1038 0.234069 54.1038 0.234069 54.1621 0.234069C54.1621 0.234069 54.1621 0.234069 54.2203 0.234069C54.2785 0.175552 54.395 0.175552 54.5115 0.117034C54.628 0.117034 54.6862 0.0585172 54.8027 0.0585172C54.8027 0.0585172 54.8027 0.0585172 54.861 0.0585172H54.9192C54.9774 0.0585172 55.0939 0.0585172 55.1522 0C55.1522 0 55.1522 0 55.2104 0C55.3269 0 55.4434 0 55.5599 0C55.5599 0 55.5599 0 55.6181 0H55.6763C55.7928 0 55.9093 0 56.0258 0.0585172C56.2005 0.0585172 56.317 0.117034 56.4917 0.175552C56.6082 0.175552 56.6664 0.234069 56.7829 0.292586H56.8412C56.8994 0.292586 57.0159 0.351103 57.0741 0.40962C57.0741 0.40962 57.0741 0.40962 57.1324 0.40962C57.1324 0.40962 57.1906 0.40962 57.1906 0.468138C57.2489 0.526655 57.3653 0.526655 57.4236 0.585172C57.4818 0.585172 57.4818 0.643689 57.5401 0.643689C57.6565 0.702207 57.773 0.760724 57.8895 0.819241C57.8313 0.819241 57.8313 0.760724 57.773 0.760724L58.7049 1.28738C58.7631 1.28738 58.7631 1.3459 58.8214 1.3459L112.753 32.6526L111.821 32.1259C111.996 32.243 112.171 32.36 112.345 32.4771C112.404 32.5356 112.462 32.5356 112.52 32.5941C112.637 32.6526 112.753 32.7696 112.869 32.8867C112.928 32.9452 112.986 33.0037 113.044 33.0622C113.161 33.1793 113.277 33.2378 113.335 33.3548C113.394 33.4133 113.452 33.4718 113.51 33.5304C113.568 33.5889 113.568 33.5889 113.627 33.6474C113.685 33.7059 113.685 33.7644 113.743 33.7644C113.86 33.8815 113.976 33.9985 114.093 34.1741C114.151 34.2326 114.151 34.2326 114.209 34.2911C114.267 34.3496 114.267 34.4081 114.326 34.4081C114.384 34.5252 114.5 34.5837 114.558 34.7007C114.617 34.7592 114.617 34.8177 114.675 34.8763C114.733 34.9348 114.733 34.9933 114.791 35.0518C114.85 35.1103 114.908 35.1688 114.966 35.2859C115.024 35.3444 115.024 35.3444 115.083 35.4029C115.141 35.5199 115.199 35.637 115.316 35.6955C115.374 35.754 115.374 35.754 115.374 35.8125C115.374 35.8125 115.374 35.8711 115.432 35.8711C115.549 36.0466 115.607 36.1636 115.723 36.3392C115.723 36.3392 115.723 36.3977 115.782 36.3977C115.782 36.4562 115.84 36.4562 115.84 36.5147C115.898 36.6318 115.956 36.6903 116.015 36.8073C116.073 36.8658 116.073 36.9244 116.131 36.9829C116.131 37.0414 116.189 37.0999 116.189 37.1584C116.189 37.2169 116.247 37.2169 116.247 37.2755C116.306 37.451 116.422 37.6266 116.48 37.8021C116.539 37.9777 116.597 38.1532 116.655 38.2703C116.655 38.3288 116.655 38.3288 116.713 38.3873C116.713 38.4458 116.772 38.5043 116.772 38.5628C116.772 38.6214 116.83 38.7384 116.83 38.7969C116.83 38.8554 116.888 38.9725 116.888 39.031C116.888 39.0895 116.946 39.2065 116.946 39.265C116.946 39.3236 116.946 39.3236 117.005 39.3821C117.005 39.4991 117.063 39.5576 117.063 39.6747C117.063 39.7917 117.121 39.8502 117.121 39.9673V40.0258C117.121 40.0843 117.121 40.1428 117.179 40.2013C117.238 40.3769 117.238 40.5524 117.238 40.6695C117.238 40.728 117.238 40.728 117.238 40.7865C117.238 40.9035 117.238 40.962 117.238 41.0791C117.238 41.1376 117.238 41.1961 117.238 41.2546C117.238 41.4887 117.238 41.6643 117.238 41.8983L113.219 44.239C113.219 44.0049 113.219 43.8294 113.219 43.5953C113.219 43.5368 113.219 43.4783 113.219 43.4198C113.219 43.3027 113.161 43.1272 113.161 43.0102C113.161 42.8346 113.102 42.7176 113.102 42.542C113.102 42.425 113.044 42.3665 113.044 42.2494C113.044 42.1324 112.986 42.0739 112.986 41.9568C112.928 41.8398 112.928 41.6643 112.869 41.5472C112.869 41.4887 112.811 41.3717 112.811 41.3132C112.753 41.1376 112.695 41.0206 112.637 40.845C112.637 40.7865 112.578 40.728 112.578 40.6695C112.404 40.2598 112.229 39.8502 112.054 39.3821C112.054 39.3236 111.996 39.265 111.996 39.2065C111.938 39.031 111.821 38.8554 111.705 38.7384C111.705 38.6799 111.646 38.6214 111.646 38.6214C111.53 38.4458 111.413 38.2117 111.297 38.0362C111.297 37.9777 111.239 37.9777 111.239 37.9192C111.122 37.7436 111.064 37.6266 110.947 37.451C110.889 37.3925 110.831 37.334 110.773 37.2169C110.715 37.0999 110.598 36.9829 110.482 36.8658C110.423 36.7488 110.365 36.6903 110.249 36.5733C110.19 36.5147 110.074 36.3977 110.016 36.3392C109.899 36.2222 109.783 36.0466 109.666 35.9296C109.608 35.8711 109.491 35.754 109.433 35.6955C109.375 35.637 109.317 35.5785 109.258 35.5199C109.142 35.4029 109.026 35.3444 108.909 35.2274C108.851 35.1688 108.793 35.1103 108.734 35.0518C108.618 34.9348 108.501 34.8763 108.385 34.7592C108.327 34.7007 108.268 34.7007 108.21 34.6422C108.035 34.5252 107.861 34.4081 107.686 34.2911L53.7544 3.10141C53.6379 3.0429 53.5214 2.98438 53.4049 2.92586C53.4049 2.92586 53.3467 2.92586 53.2884 2.86734C53.2302 2.80883 53.1137 2.75031 53.0555 2.75031Z" fill="url(#paint0_linear)"/>
<path d="M50.7839 16.6772L50.4927 135.643L108.443 169.29L108.734 50.2661L50.7839 16.6772Z" fill="#508ECF"/>
<path d="M50.7839 16.6772L51.5993 17.0869L51.2498 135.233L108.443 168.412V169.29L50.4927 135.643L50.7839 16.6772Z" fill="url(#paint1_linear)"/>
<path d="M76.5851 155.246C75.5367 154.602 74.6631 155.129 74.6631 156.358V162.619C74.6631 163.848 75.5367 165.37 76.5851 165.955L81.9433 169.056C82.9916 169.641 83.8652 169.173 83.8652 167.944V161.683C83.8652 160.454 82.9916 158.933 81.9433 158.348L76.5851 155.246Z" fill="#B7BFC3"/>
<path d="M76.1769 155.539C75.1285 154.954 74.2549 155.422 74.2549 156.651V162.912C74.2549 164.141 75.1285 165.662 76.1769 166.247L81.5351 169.349C82.5834 169.934 83.457 169.466 83.457 168.237V161.976C83.457 160.747 82.5834 159.225 81.5351 158.64L76.1769 155.539Z" fill="#E3EBEF"/>
<mask id="mask0" mask-type="alpha" maskUnits="userSpaceOnUse" x="50" y="16" width="59" height="154">
<path d="M61.8498 23.0556L108.501 150.799L108.443 169.29L50.4927 135.643L50.7839 16.6772L61.8498 23.0556Z" fill="url(#paint2_linear)"/>
</mask>
<g mask="url(#mask0)">
<path opacity="0.5" d="M61.8498 23.0556L108.501 150.799L108.443 169.29L50.4927 135.643L50.7839 16.6772L61.8498 23.0556Z" fill="#73A5D9"/>
<g opacity="0.8">
<mask id="mask1" mask-type="alpha" maskUnits="userSpaceOnUse" x="53" y="2" width="56" height="34">
<g opacity="0.8">
<g opacity="0.8">
<path opacity="0.8" d="M108.443 35.2275C108.385 35.2275 108.326 35.2275 108.268 35.169L53.5794 3.45262C53.4047 3.33559 53.3465 3.10152 53.4629 2.92597C53.5794 2.75042 53.8124 2.6919 53.9871 2.80894L108.618 34.5253C108.792 34.6423 108.851 34.8764 108.734 35.0519C108.676 35.169 108.559 35.2275 108.443 35.2275Z" fill="url(#paint3_linear)"/>
</g>
</g>
</mask>
<g mask="url(#mask1)">
<path opacity="0.8" d="M108.443 35.2275C108.385 35.2275 108.326 35.2275 108.268 35.169L53.5794 3.45262C53.4047 3.33559 53.3465 3.10152 53.4629 2.92597C53.5794 2.75042 53.8124 2.6919 53.9871 2.80894L108.618 34.5253C108.792 34.6423 108.851 34.8764 108.734 35.0519C108.676 35.169 108.559 35.2275 108.443 35.2275Z" fill="url(#paint4_linear)"/>
</g>
</g>
<g opacity="0.8">
<mask id="mask2" mask-type="alpha" maskUnits="userSpaceOnUse" x="50" y="134" width="59" height="36">
<g opacity="0.8">
<g opacity="0.8">
<path opacity="0.8" d="M108.443 169.349C108.385 169.349 108.326 169.349 108.268 169.29L50.2596 135.584C50.0849 135.467 50.0266 135.233 50.1431 135.058C50.2596 134.882 50.4926 134.824 50.6673 134.941L108.618 168.647C108.792 168.764 108.851 168.998 108.734 169.173C108.676 169.29 108.559 169.349 108.443 169.349Z" fill="url(#paint5_linear)"/>
</g>
</g>
</mask>
<g mask="url(#mask2)">
<path opacity="0.8" d="M108.443 169.349C108.385 169.349 108.326 169.349 108.268 169.29L50.2596 135.584C50.0849 135.467 50.0266 135.233 50.1431 135.058C50.2596 134.882 50.4926 134.824 50.6673 134.941L108.618 168.647C108.792 168.764 108.851 168.998 108.734 169.173C108.676 169.29 108.559 169.349 108.443 169.349Z" fill="url(#paint6_linear)"/>
</g>
</g>
<g opacity="0.8">
<mask id="mask3" mask-type="alpha" maskUnits="userSpaceOnUse" x="75" y="154" width="9" height="6">
<g opacity="0.8">
<g opacity="0.8">
<path opacity="0.8" d="M82.642 159.459C82.5838 159.459 82.5255 159.459 82.4673 159.401L75.7113 155.48C75.5365 155.363 75.4783 155.129 75.5948 154.954C75.7113 154.778 75.9442 154.719 76.119 154.837L82.875 158.757C83.0497 158.874 83.1079 159.108 82.9915 159.284C82.875 159.342 82.7585 159.459 82.642 159.459Z" fill="url(#paint7_linear)"/>
</g>
</g>
</mask>
<g mask="url(#mask3)">
<path opacity="0.8" d="M82.642 159.459C82.5838 159.459 82.5255 159.459 82.4673 159.401L75.7113 155.48C75.5365 155.363 75.4783 155.129 75.5948 154.954C75.7113 154.778 75.9442 154.719 76.119 154.837L82.875 158.757C83.0497 158.874 83.1079 159.108 82.9915 159.284C82.875 159.342 82.7585 159.459 82.642 159.459Z" fill="url(#paint8_linear)"/>
</g>
</g>
</g>
<path d="M85.8451 29.2587C86.078 29.3757 86.311 29.8439 86.311 30.312V30.5461C86.311 30.9557 86.078 31.1898 85.8451 31.0727L76.7594 25.8062C76.5264 25.6892 76.2935 25.1625 76.2935 24.7529V24.5188C76.2935 24.1092 76.5264 23.8751 76.7594 23.9922L85.8451 29.2587Z" fill="#414E52"/>
<path d="M72.1003 20.598C72.7992 21.0076 73.4399 22.0609 73.4399 22.9387C73.4399 23.8165 72.8574 24.1676 72.1003 23.7579C71.3432 23.3483 70.7607 22.295 70.7607 21.4172C70.7607 20.5395 71.3432 20.1884 72.1003 20.598Z" fill="url(#paint9_linear)"/>
<path d="M65.1116 15.741C66.2181 16.3847 67.0918 17.9647 67.0918 19.2521C67.0918 20.5395 66.2181 21.0661 65.1116 20.4224C64.005 19.7787 63.1313 18.1988 63.1313 16.9114C63.1313 15.6825 64.005 15.1559 65.1116 15.741Z" fill="url(#paint10_linear)"/>
<path d="M76.0579 94.0365L75.5603 121.899L65.6093 121.402L39.2393 107.47V77.1198L46.7025 74.1345L70.5848 87.5683L76.0579 94.0365Z" fill="#FDCD5C"/>
<path d="M77.0688 89.0689L76.2166 88.5423L74.2499 87.4891V85.4485C74.2499 82.6838 73.6599 79.7216 72.6765 76.7594C70.4476 70.1768 65.9897 63.9233 60.8107 60.8294C60.614 60.6978 60.2207 60.5003 60.024 60.3686C56.6806 58.5255 53.665 58.328 51.3049 59.5129L51.1738 59.5787C51.1082 59.6446 50.9771 59.7104 50.9116 59.7104L46.7815 62.0143C49.076 60.9611 52.026 61.2244 55.2383 63.0017C55.435 63.1333 55.8284 63.3308 56.025 63.4625C62.9741 67.6095 68.5464 77.4177 69.3331 86.0409L68.5464 86.5675L69.3987 87.0941C69.3987 87.4232 69.3987 87.7524 69.3987 88.0815V92.6893L67.6286 93.7426L68.4809 94.2692C69.792 95.0591 70.9065 97.363 70.9065 99.4036V117.111L47.4371 103.287L43.897 108.422L69.6609 126.524L78.3144 121.39L78.2489 121.324C78.3144 121.324 78.4455 121.258 78.5111 121.258L78.6422 121.192C78.7733 121.126 78.9044 120.995 78.97 120.797C79.2322 120.402 79.4289 119.876 79.4944 119.283C79.4944 119.152 79.4944 118.954 79.4944 118.822V94.2033C79.4944 92.1627 78.38 89.8588 77.0688 89.0689ZM69.3987 85.9751L69.7265 84.7902L70.4476 85.251L69.3987 85.9751Z" fill="#FCD478"/>
<path d="M54.2552 94.3349C54.0586 94.2033 53.6652 93.94 53.4685 93.8742C51.5674 92.8868 50.0596 94.0058 50.0596 96.3756C50.0596 97.6263 50.4529 98.9428 51.174 100.193V108.093L52.8785 107.171L56.6808 109.343V103.353C57.3364 102.958 57.7953 102.037 57.7953 100.786C57.6642 98.4162 56.1564 95.5198 54.2552 94.3349Z" fill="#FCD478"/>
<path d="M37.6035 77.2202L45.9948 72.1516L46.3882 72.6124L42.5203 76.8911L39.7013 78.6026L37.6035 77.2202Z" fill="#FCD478"/>
<path d="M79.4948 94.2034L70.9724 99.3378V123.035L69.5957 123.825V126.524L78.5115 121.258L78.6426 121.192L78.9704 120.797C79.2326 120.402 79.4293 119.876 79.4948 119.283V94.2034Z" fill="#E4B84F"/>
<path d="M58.3195 102.629V110.068C58.3195 110.923 57.7295 111.318 57.0084 110.858L54.1239 109.146C53.4027 108.751 52.8127 107.698 52.8127 106.842V99.4696C52.1571 98.2847 51.6982 96.9024 51.6982 95.6517C51.6982 93.2819 53.2061 92.1629 55.1072 93.1503C55.3039 93.2819 55.6972 93.4794 55.8939 93.6111C57.795 94.7959 59.3029 97.6923 59.3029 100.062C59.3684 101.313 58.9751 102.234 58.3195 102.629Z" fill="#C19C44"/>
<path d="M54.3863 75.9037L52.4196 74.7189V72.6782C52.4196 71.625 52.5507 70.7035 52.8129 69.9135C52.8785 69.6502 53.0096 69.3869 53.0752 69.1895C50.4529 68.7945 48.4862 70.2427 47.8306 73.139L46.7817 73.8631L47.6339 74.3897C47.6339 74.7189 47.5684 74.9822 47.5684 75.3113V79.9191L45.7983 80.9724L61.9909 90.3855L63.761 89.2006V84.6586C63.761 83.4738 63.5643 82.2231 63.2365 80.9724L54.3863 75.9037Z" fill="#FCD478"/>
<path d="M65.1375 91.373C63.5641 90.4515 63.7608 89.2666 63.7608 89.2666L61.9907 90.4515L67.6942 93.7428L69.4642 92.6896C69.4642 92.6896 66.6453 92.2946 65.1375 91.373Z" fill="#FCD478"/>
<path d="M45.7328 81.0384L40.0293 77.7471L41.7993 76.6938C41.7993 76.6938 41.6027 77.7471 43.176 78.6686C44.7494 79.5902 47.5028 80.051 47.5028 80.051L45.7328 81.0384Z" fill="#FCD478"/>
<path d="M56.025 63.4625C55.8284 63.3308 55.435 63.1333 55.2384 63.0017C47.7648 58.8546 41.8647 63.0017 41.8647 72.0199V76.6277C41.8647 76.7594 41.7992 77.7468 43.2414 78.6025C44.8148 79.5241 47.5682 79.9849 47.5682 79.9849V75.377C47.5682 69.9793 51.1738 67.6095 55.6317 70.1767C60.0896 72.744 63.6952 79.3266 63.6952 84.7244V89.2664C63.6952 89.2664 63.4985 90.3854 65.0719 91.3728C66.6453 92.2944 69.3987 92.7552 69.3987 92.7552V88.1473C69.4642 78.9975 63.4985 67.9387 56.025 63.4625Z" fill="#FCE4AD"/>
<path d="M68.5466 94.2691L67.6944 93.7425L61.9909 90.4511L45.7328 81.038L40.0293 77.7467L39.1771 77.2201C37.8659 76.4301 36.7515 77.4834 36.7515 79.524V104.143C36.7515 106.184 37.8659 108.488 39.1771 109.277L68.5466 126.326C69.8578 127.116 70.9722 126.063 70.9722 124.023V99.4035C70.9722 97.2971 69.8578 94.9932 68.5466 94.2691ZM56.6153 103.353V110.791C56.6153 111.647 56.0252 112.042 55.3041 111.581L52.4196 109.87C51.6985 109.475 51.1085 108.422 51.1085 107.566V100.128C50.4529 98.9427 49.994 97.5604 49.994 96.3097C49.994 93.9399 51.5018 92.8209 53.403 93.8083C53.5996 93.9399 53.993 94.1374 54.1896 94.2691C56.0908 95.4539 57.5986 98.3503 57.5986 100.72C57.6642 102.037 57.2708 102.892 56.6153 103.353Z" fill="#FDCD5C"/>
<path d="M52.4195 77.1543C52.4195 77.2201 52.5506 77.6809 52.485 78.2075C52.3539 78.8 51.7639 79.8532 49.7316 80.0507C49.076 80.1165 48.2894 80.0507 47.6338 79.9848V75.377C47.6338 74.1921 47.8305 73.1389 48.1582 72.2832L52.8784 69.9792C52.6161 70.7692 52.485 71.6907 52.485 72.744L52.4195 77.1543Z" fill="#EDC872"/>
<path d="M74.25 89.793V85.3827C74.25 84.4611 74.1845 83.4737 74.0534 82.4863L69.2021 85.1194C69.3333 86.1068 69.3988 87.0942 69.3988 88.0157V92.6236C70.0544 92.6894 70.8411 92.7552 71.4966 92.6894C73.5945 92.4919 74.1845 91.4387 74.25 90.8463C74.4467 90.3197 74.25 89.793 74.25 89.793Z" fill="#EDC871"/>
<defs>
<linearGradient id="paint0_linear" x1="49.7846" y1="22.1312" x2="117.345" y2="22.1312" gradientUnits="userSpaceOnUse">
<stop stop-color="#B7BFC3"/>
<stop offset="0.5556" stop-color="#B7BFC3"/>
<stop offset="1" stop-color="#D3D6D8"/>
</linearGradient>
<linearGradient id="paint1_linear" x1="79.4449" y1="16.6634" x2="79.4449" y2="169.282" gradientUnits="userSpaceOnUse">
<stop stop-color="#8D9AC0"/>
<stop offset="1" stop-color="#8BAECE"/>
</linearGradient>
<linearGradient id="paint2_linear" x1="43.7948" y1="128.96" x2="105.809" y2="67.2376" gradientUnits="userSpaceOnUse">
<stop stop-color="white"/>
<stop offset="0.2751" stop-color="white"/>
<stop offset="1"/>
</linearGradient>
<linearGradient id="paint3_linear" x1="108.81" y1="18.9821" x2="53.4034" y2="18.9821" gradientUnits="userSpaceOnUse">
<stop/>
<stop offset="0.5026" stop-color="white"/>
<stop offset="1"/>
</linearGradient>
<linearGradient id="paint4_linear" x1="108.81" y1="18.9821" x2="53.4034" y2="18.9821" gradientUnits="userSpaceOnUse">
<stop stop-color="white"/>
<stop offset="0.5026" stop-color="white"/>
<stop offset="1" stop-color="white"/>
</linearGradient>
<linearGradient id="paint5_linear" x1="108.81" y1="152.128" x2="50.0943" y2="152.128" gradientUnits="userSpaceOnUse">
<stop/>
<stop offset="0.5026" stop-color="white"/>
<stop offset="1"/>
</linearGradient>
<linearGradient id="paint6_linear" x1="108.81" y1="152.128" x2="50.0943" y2="152.128" gradientUnits="userSpaceOnUse">
<stop stop-color="white"/>
<stop offset="0.5026" stop-color="white"/>
<stop offset="1" stop-color="white"/>
</linearGradient>
<linearGradient id="paint7_linear" x1="83.0163" y1="157.097" x2="75.5097" y2="157.097" gradientUnits="userSpaceOnUse">
<stop/>
<stop offset="0.5026" stop-color="white"/>
<stop offset="1"/>
</linearGradient>
<linearGradient id="paint8_linear" x1="83.0163" y1="157.097" x2="75.5097" y2="157.097" gradientUnits="userSpaceOnUse">
<stop stop-color="white"/>
<stop offset="0.5026" stop-color="white"/>
<stop offset="1" stop-color="white"/>
</linearGradient>
<linearGradient id="paint9_linear" x1="73.3776" y1="23.4647" x2="70.7694" y2="20.8689" gradientUnits="userSpaceOnUse">
<stop stop-color="#A5AFBB"/>
<stop offset="1" stop-color="#CCD7D9"/>
</linearGradient>
<linearGradient id="paint10_linear" x1="67.0428" y1="20.0666" x2="63.129" y2="16.1712" gradientUnits="userSpaceOnUse">
<stop stop-color="#A5AFBB"/>
<stop offset="1" stop-color="#CCD7D9"/>
</linearGradient>
</defs>
</svg>
