<svg width="163" height="163" viewBox="0 0 163 163" fill="none" xmlns="http://www.w3.org/2000/svg">
<path d="M0 15C0 6.71573 6.71573 0 15 0H148C156.284 0 163 6.71573 163 15V148C163 156.284 156.284 163 148 163H15C6.71573 163 0 156.284 0 148V15Z" fill="#3D9FF9"/>
<path d="M16.6011 100.535L80.7872 63.4771L144.97 100.535L80.7872 137.59L16.6011 100.535Z" fill="#E3EBEF"/>
<path d="M45.4736 100.535L80.7872 80.146L116.097 100.535L80.7872 120.921L45.4736 100.535Z" fill="#FFF200"/>
<path d="M16.6279 100.622L80.7873 137.554V142.203L16.6279 105.185V100.622Z" fill="#D1D9DD"/>
<path d="M11.9751 107.979L80.8741 147.391L80.7638 152.364L11.9751 112.629V107.979Z" fill="#D1D9DD"/>
<path d="M7.32568 115.206L80.7872 157.05L80.8574 162.355L7.32568 119.858V115.206Z" fill="#D1D9DD"/>
<path d="M11.9751 107.872L16.6279 105.185L80.7872 142.203L80.8741 147.391L11.9751 107.872Z" fill="#E3EBEF"/>
<path d="M7.32568 115.249L11.9751 112.562L85.5336 154.938L80.8808 157.622L7.32568 115.249Z" fill="#E3EBEF"/>
<path d="M80.7871 120.921V96.4173L116.445 75.8308V100.535L80.7871 120.921Z" fill="#D1D9DD"/>
<path d="M45.1333 100.649V75.918L80.8379 96.5045V121.012L45.1333 100.649Z" fill="#D1D9DD"/>
<path d="M73.6572 127.005L80.8336 122.86L87.9197 127.005L80.7868 131.066L73.6572 127.005Z" fill="#BCC5CA"/>
<path d="M87.919 126.958V129.505L80.7861 133.569V131.069L87.919 126.958Z" fill="#C7D1D6"/>
<path d="M73.6538 127.003V129.507L80.7867 133.571V131.071L73.6538 127.003Z" fill="#D1D9DD"/>
<path d="M78.8713 128.893L76.9561 126.961L78.8713 125.032H82.7018L84.6204 126.961L82.7018 128.893H78.8713Z" fill="#9C9C95"/>
<path d="M82.6918 93.2151H78.8379V128.893H82.6918V93.2151Z" fill="#E3EBEF"/>
<path d="M82.689 128.893L84.6376 126.981V93.2151H82.689V128.893Z" fill="#B2BDC3"/>
<path d="M76.956 126.968L78.8378 128.893V93.1853H76.9326L76.956 126.968Z" fill="#F4F9FB"/>
<path d="M86.1357 119.805L93.3154 115.66L100.398 119.805L93.2686 123.866L86.1357 119.805Z" fill="#BCC5CA"/>
<path d="M100.398 119.761V122.305L93.2686 126.37V123.869L100.398 119.761Z" fill="#C7D1D6"/>
<path d="M86.1357 119.803V122.307L93.2686 126.371V123.871L86.1357 119.803Z" fill="#D1D9DD"/>
<path d="M91.3537 121.693L89.4351 119.765L91.3537 117.833H95.1842L97.0994 119.765L95.1842 121.693H91.3537Z" fill="#9C9C95"/>
<path d="M95.1703 86.019H91.3164V121.697H95.1703V86.019Z" fill="#E3EBEF"/>
<path d="M95.1704 121.694L97.1191 119.785V86.019H95.1704V121.694Z" fill="#B2BDC3"/>
<path d="M89.4384 119.768L91.3169 121.694V85.9856H89.415L89.4384 119.768Z" fill="#F4F9FB"/>
<path d="M98.6152 112.605L105.795 108.46L112.878 112.605L105.748 116.666L98.6152 112.605Z" fill="#BCC5CA"/>
<path d="M112.878 112.562V115.105L105.745 119.17V116.67L112.878 112.562Z" fill="#C7D1D6"/>
<path d="M98.6152 112.604V115.107L105.745 119.172V116.671L98.6152 112.604Z" fill="#D1D9DD"/>
<path d="M103.83 114.494L101.915 112.565L103.83 110.633H107.664L109.579 112.565L107.664 114.494H103.83Z" fill="#9C9C95"/>
<path d="M107.651 78.8191H103.797V114.497H107.651V78.8191Z" fill="#E3EBEF"/>
<path d="M107.647 114.494L109.599 112.585V78.8191H107.647V114.494Z" fill="#B2BDC3"/>
<path d="M101.915 112.568L103.796 114.494V78.7891H101.895L101.915 112.568Z" fill="#F4F9FB"/>
<path d="M111.097 105.405L118.274 101.261L125.36 105.405L118.227 109.47L111.097 105.405Z" fill="#BCC5CA"/>
<path d="M125.36 105.362V107.909L118.227 111.97V109.47L125.36 105.362Z" fill="#C7D1D6"/>
<path d="M111.094 105.404V107.91L118.227 111.972V109.471L111.094 105.404Z" fill="#D1D9DD"/>
<path d="M116.311 107.297L114.396 105.365L116.311 103.433H120.142L122.06 105.365L120.142 107.297H116.311Z" fill="#9C9C95"/>
<path d="M120.132 71.6194H116.278V107.297H120.132V71.6194Z" fill="#E3EBEF"/>
<path d="M120.129 107.297L122.078 105.385V71.6194H120.129V107.297Z" fill="#B2BDC3"/>
<path d="M114.396 105.369L116.278 107.297V71.5894H114.373L114.396 105.369Z" fill="#F4F9FB"/>
<path d="M123.574 98.206L130.754 94.0613L137.837 98.206L130.707 102.27L123.574 98.206Z" fill="#BCC5CA"/>
<path d="M137.837 98.1624V100.709L130.707 104.77V102.27L137.837 98.1624Z" fill="#C7D1D6"/>
<path d="M123.574 98.2039V100.711L130.707 104.772V102.272L123.574 98.2039Z" fill="#D1D9DD"/>
<path d="M128.792 100.098L126.873 98.1659L128.792 96.2339H132.622L134.537 98.1659L132.622 100.098H128.792Z" fill="#9C9C95"/>
<path d="M132.609 64.4199H128.755V100.098H132.609V64.4199Z" fill="#E3EBEF"/>
<path d="M132.609 100.098L134.558 98.1859V64.4199H132.609V100.098Z" fill="#B2BDC4"/>
<path d="M126.877 98.1692L128.755 100.098V64.3899H126.854L126.877 98.1692Z" fill="#F4F9FB"/>
<path d="M80.7871 14.3087L144.97 51.3637L112.848 3.66284L80.7871 14.3087Z" fill="#222220"/>
<path d="M64.7306 112.191V91.8247L55.8027 86.6672V107.287L64.7306 112.191Z" fill="#BAC2C7"/>
<path d="M55.8027 86.6672L57.3704 87.5931V106.348L55.8027 107.287V86.6672Z" fill="#B2BDC3"/>
<path d="M55.4517 107.2L57.3703 106.348L64.8174 110.523V112.762L55.4517 107.2Z" fill="#F4F9FB"/>
<path d="M144.844 100.636L80.772 137.567V142.303L144.844 105.289V100.636Z" fill="#D1D9DD"/>
<path d="M149.493 108.079L80.7876 147.39L80.7642 152.19L149.493 112.732V108.079Z" fill="#D1D9DD"/>
<path d="M154.142 115.309L80.7642 157.635L80.7708 162.355L154.142 119.959V115.309Z" fill="#D1D9DD"/>
<path d="M149.493 107.972L144.843 105.288L80.7877 142.203L80.771 147.391L149.493 107.972Z" fill="#E3EBEF"/>
<path d="M154.142 115.349L149.493 112.575L80.7642 152.19V157.635L154.142 115.349Z" fill="#E3EBEF"/>
<path d="M23.7046 98.1752L30.8843 94.0305L37.9671 98.1752L30.8375 102.24L23.7046 98.1752Z" fill="#BCC5CA"/>
<path d="M37.9674 98.1318V100.679L30.8345 104.74V102.24L37.9674 98.1318Z" fill="#C7D1D6"/>
<path d="M23.7046 98.1738V100.681L30.8341 104.742V102.242L23.7046 98.1738Z" fill="#D1D9DD"/>
<path d="M28.9187 100.067L27.0034 98.1351L28.9187 96.2031H32.7525L34.6678 98.1351L32.7525 100.067H28.9187Z" fill="#9C9C95"/>
<path d="M32.7396 64.3892H28.8857V100.067H32.7396V64.3892Z" fill="#E3EBEF"/>
<path d="M32.7397 100.067L34.6884 98.1551V64.3892H32.7397V100.067Z" fill="#B2BDC3"/>
<path d="M27.0068 98.1385L28.8853 100.067V64.3591H26.9834L27.0068 98.1385Z" fill="#F4F9FB"/>
<path d="M36.1909 105.382L43.3706 101.237L50.4534 105.382L43.3238 109.446L36.1909 105.382Z" fill="#BCC5CA"/>
<path d="M50.4537 105.338V107.885L43.3208 111.947V109.446L50.4537 105.338Z" fill="#C7D1D6"/>
<path d="M36.1909 105.38V107.887L43.3205 111.948V109.448L36.1909 105.38Z" fill="#D1D9DD"/>
<path d="M41.4088 107.274L39.4902 105.342L41.4088 103.41H45.2393L47.1546 105.342L45.2393 107.274H41.4088Z" fill="#9C9C95"/>
<path d="M45.2274 71.5962H41.3735V107.274H45.2274V71.5962Z" fill="#E3EBEF"/>
<path d="M45.2275 107.274L47.1762 105.362V71.5962H45.2275V107.274Z" fill="#B2BDC3"/>
<path d="M39.4936 105.345L41.3721 107.274V71.5659H39.4702L39.4936 105.345Z" fill="#F4F9FB"/>
<path d="M61.167 119.798L68.3467 115.654L75.4328 119.798L68.2999 123.859L61.167 119.798Z" fill="#BCC5CA"/>
<path d="M75.4294 119.751V122.298L68.2998 126.36V123.863L75.4294 119.751Z" fill="#C7D1D6"/>
<path d="M61.167 119.796V122.3L68.2999 126.361V123.864L61.167 119.796Z" fill="#D1D9DD"/>
<path d="M66.3845 121.687L64.4692 119.755L66.3845 117.826H70.215L72.1303 119.755L70.215 121.687H66.3845Z" fill="#9C9C95"/>
<path d="M70.2025 86.0085H66.3486V121.686H70.2025V86.0085Z" fill="#E3EBEF"/>
<path d="M70.2021 121.686L72.1508 119.775V86.0085H70.2021V121.686Z" fill="#B2BDC3"/>
<path d="M64.4697 119.758L66.3482 121.687V85.9788H64.4463L64.4697 119.758Z" fill="#F4F9FB"/>
<path d="M16.6919 59.4661L80.8746 22.4111L145.057 59.4661L80.8746 96.5245L16.6919 59.4661Z" fill="#898982"/>
<path d="M16.6919 51.2768L80.8746 14.2185L145.057 51.2768L80.8746 88.3318L16.6919 51.2768Z" fill="#61615C"/>
<path d="M80.8746 88.3319V92.4298V96.5243L48.7833 77.9968L16.6919 59.466V55.3714V51.2769L48.7833 69.8044L80.8746 88.3319Z" fill="#E3EBEF"/>
<path d="M80.874 88.3319V96.5243L145.057 59.466V51.2769L80.874 88.3319Z" fill="#4F6175"/>
<path d="M16.6919 51.2767L80.8746 88.3317L48.7532 40.6309L16.6919 51.2767Z" fill="#E3EBEF"/>
<path d="M48.7524 40.6309L112.848 3.66284L144.97 51.3637L80.8739 88.3318L48.7524 40.6309Z" fill="#617990"/>
<path d="M16.6919 51.2768L48.7532 40.6309L112.849 3.66284L80.7878 14.3087L16.6919 51.2768Z" fill="#788DA3"/>
<path d="M48.7059 47.042L73.4839 84.0669L23.5703 55.1509L48.7059 47.042Z" fill="#D1D9DD"/>
<path d="M50.6604 62.001C52.3086 61.0494 52.2769 57.909 50.5897 54.9867C48.9024 52.0643 46.1985 50.4668 44.5503 51.4184C42.9021 52.37 42.9337 55.5104 44.621 58.4328C46.3082 61.3551 49.0122 62.9527 50.6604 62.001Z" fill="#BAC3C7"/>
<path d="M45.8949 57.7347C44.735 55.4852 44.2069 52.4268 45.3033 51.1533C45.0292 51.1901 44.7718 51.2703 44.5345 51.4073C42.8866 52.36 42.9167 55.5019 44.6047 58.4233C46.2926 61.3446 48.9967 62.9423 50.6446 61.9931C50.8418 61.8794 51.0156 61.7323 51.166 61.5585C48.7661 61.6722 46.9979 59.8706 45.8949 57.7347Z" fill="#F4F9FB"/>
<path d="M26.9828 54.051L69.9507 78.7889L75.429 85.9285L22.0459 55.495L26.9828 54.051Z" fill="#F4F9FB"/>
<path d="M34.1333 60.2516L35.2831 59.6499L59.1386 73.3776L57.9018 74.1363L34.1333 60.2516Z" fill="#8CB9E9"/>
<path d="M57.9014 74.1364L59.1381 73.3777L59.1715 81.3796L57.9014 82.1518V74.1364Z" fill="#567CA5"/>
<path d="M34.1328 60.2515L57.9014 74.1362V82.2786L34.1328 68.5542V60.2515Z" fill="#6199D4"/>
<path d="M36.4121 63.4771L38.9558 64.9478C39.3803 65.1918 39.7045 65.4859 39.9318 65.8268C40.1591 66.1678 40.2727 66.4953 40.2727 66.8028C40.2727 67.0636 40.1925 67.2407 40.0287 67.331C39.9217 67.3911 39.7613 67.3978 39.5541 67.351C39.8716 67.6084 40.1022 67.8758 40.2526 68.1465C40.4031 68.4173 40.4766 68.6947 40.4766 68.9721C40.4766 69.1994 40.4231 69.3732 40.3162 69.4969C40.2092 69.6172 40.0655 69.6774 39.8816 69.6774C39.768 69.6774 39.5942 69.6273 39.3669 69.5236C39.0594 69.3866 38.8588 69.2897 38.7585 69.2328L36.4121 67.8791V63.4771ZM37.7825 65.994L38.3742 66.3349C38.5847 66.4586 38.7351 66.5054 38.8154 66.482C38.8989 66.4552 38.939 66.375 38.939 66.238C38.939 66.1109 38.8989 65.9873 38.8154 65.8669C38.7318 65.7466 38.5881 65.6263 38.3808 65.5093L37.7792 65.1617V65.994H37.7825ZM37.7825 67.722L38.4744 68.1231C38.7084 68.2568 38.8722 68.3137 38.9691 68.2836C39.0661 68.2568 39.1129 68.1733 39.1129 68.0329C39.1129 67.9025 39.0661 67.7722 38.9691 67.6385C38.8755 67.5048 38.7084 67.3677 38.4711 67.2307L37.7825 66.8329V67.722Z" fill="#E3EBEF"/>
<path d="M43.7893 71.4087L42.2451 70.5163L42.0312 71.1179L40.644 70.3157L42.2986 66.8696L43.7827 67.7253L45.4372 73.08L44.0133 72.2577L43.7893 71.4087ZM43.5052 70.2957L43.0206 68.4339L42.5392 69.7375L43.5052 70.2957Z" fill="#E3EBEF"/>
<path d="M45.875 68.9385L47.1452 69.6705L48.803 73.0598V70.6264L50.0832 71.3651V75.7639L48.803 75.0252L47.1552 71.6593V74.0759L45.875 73.3372V68.9385Z" fill="#E3EBEF"/>
<path d="M50.9893 71.8936L52.3497 72.679V74.3403L53.7736 73.5013L55.5819 74.5442L53.9775 75.2795L55.6554 78.9863L53.9808 78.0204L53.0516 75.6739L52.3497 76.0048V77.0778L50.9893 76.2923V71.8936Z" fill="#E3EBEF"/>
<path d="M26.9834 54.0513L28.8853 53.4363L68.2767 76.2856L69.9513 78.7892L26.9834 54.0513Z" fill="#F4F9FB"/>
</svg>
