<svg width="32" height="37" viewBox="0 0 32 37" fill="none" xmlns="http://www.w3.org/2000/svg">
<path d="M26.6498 35.51C24.5917 37.4577 22.321 37.1541 20.1567 36.2358C17.8556 35.299 15.752 35.2397 13.3218 36.2358C10.2955 37.5095 8.68926 37.1393 6.86662 35.51C-3.42367 25.1792 -1.90481 9.44218 9.79043 8.84973C12.6269 8.99785 14.6128 10.379 16.2836 10.4938C18.7669 10.0013 21.1439 8.59054 23.8019 8.77568C26.9953 9.02747 29.3838 10.2568 30.9786 12.4674C24.4095 16.3183 25.9663 24.7607 32 27.1305C30.7925 30.2224 29.2433 33.2772 26.646 35.5359L26.6498 35.51ZM16.0557 8.73865C15.7482 4.14716 19.5643 0.370282 23.9538 0C24.5576 5.29503 19.0175 9.25704 16.0557 8.73865Z" fill="#EEF0F9"/>
</svg>
