<svg width="346" height="365" viewBox="0 0 346 365" fill="none" xmlns="http://www.w3.org/2000/svg">
<path d="M4.37769 0C3.18331 0 2.12293 0.764282 1.74523 1.89734L0.377686 6L0 359L1.36755 363.103C1.74524 364.236 2.80563 365 4 365C5.19437 365 6.25476 364.236 6.63245 363.103L8 359H13L14.3676 363.103C14.7452 364.236 15.8056 365 17 365C18.1944 365 19.2548 364.236 19.6324 363.103L21 359H25L26.3676 363.103C26.7452 364.236 27.8056 365 29 365C30.1944 365 31.2548 364.236 31.6324 363.103L33 359H37L38.3676 363.103C38.7452 364.236 39.8056 365 41 365C42.1944 365 43.2548 364.236 43.6324 363.103L45 359H49L50.3676 363.103C50.7452 364.236 51.8056 365 53 365C54.1944 365 55.2548 364.236 55.6324 363.103L57 359H61L62.3676 363.103C62.7452 364.236 63.8056 365 65 365C66.1944 365 67.2548 364.236 67.6324 363.103L69 359H73L74.3676 363.103C74.7452 364.236 75.8056 365 77 365C78.1944 365 79.2548 364.236 79.6324 363.103L81 359H85L86.3676 363.103C86.7452 364.236 87.8056 365 89 365C90.1944 365 91.2548 364.236 91.6324 363.103L93 359H97L98.3676 363.103C98.7452 364.236 99.8056 365 101 365C102.194 365 103.255 364.236 103.632 363.103L105 359H109L110.368 363.103C110.745 364.236 111.806 365 113 365C114.194 365 115.255 364.236 115.632 363.103L117 359H121L122.368 363.103C122.745 364.236 123.806 365 125 365C126.194 365 127.255 364.236 127.632 363.103L129 359H133L134.368 363.103C134.745 364.236 135.806 365 137 365C138.194 365 139.255 364.236 139.632 363.103L141 359H145L146.368 363.103C146.745 364.236 147.806 365 149 365C150.194 365 151.255 364.236 151.632 363.103L153 359H157L158.368 363.103C158.745 364.236 159.806 365 161 365C162.194 365 163.255 364.236 163.632 363.103L165 359H169L170.368 363.103C170.745 364.236 171.806 365 173 365C174.194 365 175.255 364.236 175.632 363.103L177 359H181L182.368 363.103C182.745 364.236 183.806 365 185 365C186.194 365 187.255 364.236 187.632 363.103L189 359H193L194.368 363.103C194.745 364.236 195.806 365 197 365C198.194 365 199.255 364.236 199.632 363.103L201 359H205L206.368 363.103C206.745 364.236 207.806 365 209 365C210.194 365 211.255 364.236 211.632 363.103L213 359H217L218.368 363.103C218.745 364.236 219.806 365 221 365C222.194 365 223.255 364.236 223.632 363.103L225 359H229L230.368 363.103C230.745 364.236 231.806 365 233 365C234.194 365 235.255 364.236 235.632 363.103L237 359H241L242.368 363.103C242.745 364.236 243.806 365 245 365C246.194 365 247.255 364.236 247.632 363.103L249 359H253L254.368 363.103C254.745 364.236 255.806 365 257 365C258.194 365 259.255 364.236 259.632 363.103L261 359H265L266.368 363.103C266.745 364.236 267.806 365 269 365C270.194 365 271.255 364.236 271.632 363.103L273 359H277L278.368 363.103C278.745 364.236 279.806 365 281 365C282.194 365 283.255 364.236 283.632 363.103L285 359H289L290.368 363.103C290.745 364.236 291.806 365 293 365C294.194 365 295.255 364.236 295.632 363.103L297 359H301L302.368 363.103C302.745 364.236 303.806 365 305 365C306.194 365 307.255 364.236 307.632 363.103L309 359H313L314.368 363.103C314.745 364.236 315.806 365 317 365C318.194 365 319.255 364.236 319.632 363.103L321 359H325L326.368 363.103C326.745 364.236 327.806 365 329 365C330.194 365 331.255 364.236 331.632 363.103L333 359H337L338.368 363.103C338.745 364.236 339.806 365 341 365C342.194 365 343.255 364.236 343.632 363.103L345 359L345.378 6L344.01 1.89734C343.632 0.764282 342.572 0 341.378 0C340.183 0 339.123 0.764282 338.745 1.89734L337.378 6H332.378L331.01 1.89734C330.632 0.764282 329.572 0 328.378 0C327.183 0 326.123 0.764282 325.745 1.89734L324.378 6H320.378L319.01 1.89734C318.632 0.764282 317.572 0 316.378 0C315.183 0 314.123 0.764282 313.745 1.89734L312.378 6H308.378L307.01 1.89734C306.632 0.764282 305.572 0 304.378 0C303.183 0 302.123 0.764282 301.745 1.89734L300.378 6H296.378L295.01 1.89734C294.632 0.764282 293.572 0 292.378 0C291.183 0 290.123 0.764282 289.745 1.89734L288.378 6H284.378L283.01 1.89734C282.632 0.764282 281.572 0 280.378 0C279.183 0 278.123 0.764282 277.745 1.89734L276.378 6H272.378L271.01 1.89734C270.632 0.764282 269.572 0 268.378 0C267.183 0 266.123 0.764282 265.745 1.89734L264.378 6H260.378L259.01 1.89734C258.632 0.764282 257.572 0 256.378 0C255.183 0 254.123 0.764282 253.745 1.89734L252.378 6H248.378L247.01 1.89734C246.632 0.764282 245.572 0 244.378 0C243.183 0 242.123 0.764282 241.745 1.89734L240.378 6H236.378L235.01 1.89734C234.632 0.764282 233.572 0 232.378 0C231.183 0 230.123 0.764282 229.745 1.89734L228.378 6H224.378L223.01 1.89734C222.632 0.764282 221.572 0 220.378 0C219.183 0 218.123 0.764282 217.745 1.89734L216.378 6H212.378L211.01 1.89734C210.632 0.764282 209.572 0 208.378 0C207.183 0 206.123 0.764282 205.745 1.89734L204.378 6H200.378L199.01 1.89734C198.632 0.764282 197.572 0 196.378 0C195.183 0 194.123 0.764282 193.745 1.89734L192.378 6H188.378L187.01 1.89734C186.632 0.764282 185.572 0 184.378 0C183.183 0 182.123 0.764282 181.745 1.89734L180.378 6H176.378L175.01 1.89734C174.632 0.764282 173.572 0 172.378 0C171.183 0 170.123 0.764282 169.745 1.89734L168.378 6H164.378L163.01 1.89734C162.632 0.764282 161.572 0 160.378 0C159.183 0 158.123 0.764282 157.745 1.89734L156.378 6H152.378L151.01 1.89734C150.632 0.764282 149.572 0 148.378 0C147.183 0 146.123 0.764282 145.745 1.89734L144.378 6H140.378L139.01 1.89734C138.632 0.764282 137.572 0 136.378 0C135.183 0 134.123 0.764282 133.745 1.89734L132.378 6H128.378L127.01 1.89734C126.632 0.764282 125.572 0 124.378 0C123.183 0 122.123 0.764282 121.745 1.89734L120.378 6H116.378L115.01 1.89734C114.632 0.764282 113.572 0 112.378 0C111.183 0 110.123 0.764282 109.745 1.89734L108.378 6H104.378L103.01 1.89734C102.632 0.764282 101.572 0 100.378 0C99.1833 0 98.1229 0.764282 97.7452 1.89734L96.3777 6H92.3777L91.0101 1.89734C90.6324 0.764282 89.5721 0 88.3777 0C87.1833 0 86.1229 0.764282 85.7452 1.89734L84.3777 6H80.3777L79.0101 1.89734C78.6324 0.764282 77.5721 0 76.3777 0C75.1833 0 74.1229 0.764282 73.7452 1.89734L72.3777 6H68.3777L67.0101 1.89734C66.6324 0.764282 65.5721 0 64.3777 0C63.1833 0 62.1229 0.764282 61.7452 1.89734L60.3777 6H56.3777L55.0101 1.89734C54.6324 0.764282 53.5721 0 52.3777 0C51.1833 0 50.1229 0.764282 49.7452 1.89734L48.3777 6H44.3777L43.0101 1.89734C42.6324 0.764282 41.5721 0 40.3777 0C39.1833 0 38.1229 0.764282 37.7452 1.89734L36.3777 6H32.3777L31.0101 1.89734C30.6324 0.764282 29.5721 0 28.3777 0C27.1833 0 26.1229 0.764282 25.7452 1.89734L24.3777 6H20.3777L19.0101 1.89734C18.6324 0.764282 17.5721 0 16.3777 0C15.1833 0 14.1229 0.764282 13.7452 1.89734L12.3777 6H8.37769L7.01014 1.89734C6.63244 0.764282 5.57207 0 4.37769 0Z" fill="white"/>
</svg>
