<svg width="147" height="32" viewBox="0 0 147 32" fill="none" xmlns="http://www.w3.org/2000/svg">
<path d="M44.6587 26.6667V10.6827H48.0187V17.6427L53.4667 10.6827H57.2107L51.3307 18.0987L57.4747 26.6667H53.4667L48.0187 19.0107V26.6667H44.6587Z" fill="white"/>
<path d="M67.9779 25.1067C66.9699 26.3387 65.5139 26.9547 63.6099 26.9547C61.7059 26.9547 60.2499 26.3547 59.2419 25.1547C58.2499 23.9547 57.7539 22.5227 57.7539 20.8587C57.7539 19.1947 58.2499 17.7547 59.2419 16.5387C60.2339 15.3067 61.6819 14.6907 63.5859 14.6907C64.8819 14.6907 65.9859 14.9947 66.8979 15.6027C67.8259 16.2107 68.4899 16.9627 68.8899 17.8587C69.3059 18.7387 69.5139 19.7067 69.5139 20.7627C69.5139 22.4107 69.0019 23.8587 67.9779 25.1067ZM63.6579 24.5307C65.3059 24.5307 66.1299 23.3067 66.1299 20.8587C66.1299 19.7067 65.9139 18.7867 65.4819 18.0987C65.0659 17.4107 64.4179 17.0667 63.5379 17.0667C61.9379 17.0667 61.1379 18.2987 61.1379 20.7627C61.1379 21.9147 61.3379 22.8347 61.7379 23.5227C62.1539 24.1947 62.7939 24.5307 63.6579 24.5307Z" fill="white"/>
<path d="M75.0052 26.9547C73.3412 26.9547 71.9572 26.5867 70.8532 25.8507L71.9332 23.6187C72.8612 24.2587 73.8212 24.5787 74.8132 24.5787C76.0932 24.5787 76.7332 24.2267 76.7332 23.5227C76.7332 23.3627 76.6852 23.2267 76.5892 23.1147C76.5092 22.9867 76.3652 22.8747 76.1572 22.7787C75.9492 22.6667 75.7412 22.5707 75.5332 22.4907C75.3412 22.3947 75.0692 22.2747 74.7172 22.1307C74.3652 21.9867 74.0532 21.8507 73.7812 21.7227C72.9012 21.3067 72.2452 20.8427 71.8132 20.3307C71.3812 19.8027 71.1652 19.1147 71.1652 18.2667C71.1652 17.1787 71.5572 16.3147 72.3412 15.6747C73.1412 15.0187 74.2052 14.6907 75.5332 14.6907C76.9732 14.6907 78.2212 15.0027 79.2772 15.6267L78.1492 17.8107C77.3652 17.3147 76.5332 17.0667 75.6532 17.0667C74.5812 17.0667 74.0452 17.4107 74.0452 18.0987C74.0452 18.2587 74.0772 18.3947 74.1412 18.5067C74.2052 18.6187 74.3332 18.7307 74.5252 18.8427C74.7172 18.9547 74.8772 19.0427 75.0052 19.1067C75.1332 19.1547 75.3652 19.2427 75.7012 19.3707C76.0532 19.4827 76.3012 19.5707 76.4452 19.6347C77.5012 20.0827 78.2932 20.5627 78.8212 21.0747C79.3652 21.5867 79.6372 22.2987 79.6372 23.2107C79.6372 24.4267 79.2292 25.3547 78.4132 25.9947C77.5972 26.6347 76.4612 26.9547 75.0052 26.9547Z" fill="white"/>
<path d="M81.8193 26.6667V9.38672H85.0113V16.3947C86.0673 15.2587 87.2833 14.6907 88.6593 14.6907C89.8753 14.6907 90.7633 15.0347 91.3233 15.7227C91.8833 16.3947 92.1633 17.3147 92.1633 18.4827V26.6667H88.9713V19.1307C88.9713 18.5227 88.8513 18.0747 88.6113 17.7867C88.3713 17.4987 87.9793 17.3547 87.4353 17.3547C86.5713 17.3547 85.7633 17.8427 85.0113 18.8187V26.6667H81.8193Z" fill="white"/>
<path d="M100.483 26.9547C98.5633 26.9547 97.0593 26.3947 95.9713 25.2747C94.8993 24.1547 94.3633 22.6507 94.3633 20.7627C94.3633 18.9547 94.9153 17.4907 96.0193 16.3707C97.1233 15.2507 98.4993 14.6907 100.147 14.6907C101.795 14.6907 103.051 15.1947 103.915 16.2027C104.795 17.1947 105.235 18.6107 105.235 20.4507C105.235 20.6747 105.219 21.0427 105.187 21.5547H97.7953C97.8753 22.4667 98.1553 23.2027 98.6353 23.7627C99.1313 24.3067 99.8433 24.5787 100.771 24.5787C101.715 24.5787 102.731 24.3067 103.819 23.7627L104.851 25.8267C103.507 26.5787 102.051 26.9547 100.483 26.9547ZM97.7473 19.3947H102.115C102.083 17.7947 101.411 16.9947 100.099 16.9947C98.7873 16.9947 98.0033 17.7947 97.7473 19.3947Z" fill="white"/>
<path d="M107.793 26.6667V9.38672H110.985V26.6667H107.793Z" fill="white"/>
<path d="M122.058 26.9547C119.498 26.9547 117.466 26.1547 115.962 24.5547C114.474 22.9387 113.73 20.9867 113.73 18.6987C113.73 16.3947 114.466 14.4347 115.938 12.8187C117.41 11.2027 119.426 10.3947 121.986 10.3947C124.546 10.3947 126.554 11.1947 128.01 12.7947C129.482 14.3947 130.218 16.3307 130.218 18.6027C130.218 20.9227 129.49 22.8987 128.034 24.5307C126.594 26.1467 124.602 26.9547 122.058 26.9547ZM118.506 22.6107C119.306 23.6827 120.466 24.2187 121.986 24.2187C123.506 24.2187 124.658 23.6987 125.442 22.6587C126.242 21.6187 126.642 20.2987 126.642 18.6987C126.642 17.0987 126.25 15.7707 125.466 14.7147C124.698 13.6587 123.562 13.1307 122.058 13.1307C120.522 13.1307 119.346 13.6507 118.53 14.6907C117.73 15.7147 117.33 17.0187 117.33 18.6027C117.33 20.2027 117.722 21.5387 118.506 22.6107Z" fill="white"/>
<path d="M133.252 26.6667V10.6827H136.612V17.6427L142.06 10.6827H145.804L139.924 18.0987L146.068 26.6667H142.06L136.612 19.0107V26.6667H133.252Z" fill="white"/>
<path d="M7.43992 18.5428C7.91992 18.0565 8.55992 17.8134 9.27992 17.8134C9.91992 17.8134 10.5599 18.0565 11.1199 18.5428C11.5999 19.1102 11.8399 19.8396 11.8399 20.569C11.8399 21.2984 11.5999 22.0278 11.1199 22.5952C10.6399 23.0815 9.99992 23.3246 9.27992 23.3246C8.55992 23.4056 7.91992 23.0815 7.43992 22.5952C6.95992 22.0278 6.71992 21.2984 6.71992 20.569C6.71992 19.8396 6.95992 19.1102 7.43992 18.5428Z" fill="#C2E812"/>
<path fill-rule="evenodd" clip-rule="evenodd" d="M32 12.7075L31.92 26.7286C32 27.3769 32 28.1064 32 28.6737C31.28 30.6999 29.36 32.0777 27.2 31.9966H5.2C2.4 31.9966 0.160004 29.7273 0.160004 26.8907L0 6.38581V5.98058C0 5.81848 0 5.65639 0.0799988 5.49429C0.479999 3.79231 2 2.57661 3.76 2.57661H6.08C6.8 2.57661 7.36 3.14394 7.36 3.87336C7.36 4.60278 6.8 5.17011 6.08 5.17011H3.76C3.04 5.17011 2.48 5.73743 2.48 6.38581C2.56 7.03418 3.12 7.60151 3.76 7.60151H5.68L17.76 0.145204C18.32 -0.178984 19.12 0.0641569 19.44 0.631485L20.88 3.06289L24 1.11777C24.56 0.712532 25.36 0.955672 25.68 1.523L29.92 8.57407C31.2 9.54664 32 11.0865 32 12.7075ZM23.84 15.6251L21.12 19.5154H19.52V15.5441H16.64V25.756H19.52V21.9468H21.04L23.68 25.756H27.12L23.44 20.488L26.88 15.6251H23.84ZM14 23.3246C14.48 22.5141 14.72 21.6226 14.72 20.6501C14.72 19.6775 14.48 18.7049 14 17.9755C13.52 17.165 12.88 16.5167 12.08 16.1114C11.2 15.7062 10.24 15.4631 9.28 15.4631C8.32 15.4631 7.36 15.6251 6.48 16.1114C5.68 16.5167 5.04 17.165 4.56 17.9755C4.08 18.786 3.84 19.6775 3.84 20.6501C3.84 21.6226 4.08 22.5141 4.56 23.3246C4.96 24.1351 5.68 24.7834 6.48 25.1887C7.36 25.5939 8.32 25.837 9.28 25.837C10.24 25.837 11.2 25.675 12.08 25.1887C12.88 24.7834 13.52 24.1351 14 23.3246ZM26.4 7.68256L24.16 3.9544L22.08 5.3322L23.44 7.68256H26.4ZM19.2 5.3322L17.84 3.06289L10.4 7.68256H20.56L19.36 5.65639C19.36 5.61586 19.34 5.5956 19.32 5.57534C19.3 5.55508 19.28 5.53482 19.28 5.49429C19.28 5.49429 19.2 5.41325 19.2 5.3322Z" fill="#C2E812"/>
</svg>
