<svg width="346" height="365" viewBox="0 0 346 365" fill="none" xmlns="http://www.w3.org/2000/svg">
<path d="M4.99976 0C3.80538 0 2.745 0.764282 2.3673 1.89734L0.999756 6L0.62207 359L1.98962 363.103C2.36731 364.236 3.4277 365 4.62207 365C5.81644 365 6.87683 364.236 7.25452 363.103L8.62207 359H13.6221L14.9896 363.103C15.3673 364.236 16.4277 365 17.6221 365C18.8164 365 19.8768 364.236 20.2545 363.103L21.6221 359H25.6221L26.9896 363.103C27.3673 364.236 28.4277 365 29.6221 365C30.8164 365 31.8768 364.236 32.2545 363.103L33.6221 359H37.6221L38.9896 363.103C39.3673 364.236 40.4277 365 41.6221 365C42.8164 365 43.8768 364.236 44.2545 363.103L45.6221 359H49.6221L50.9896 363.103C51.3673 364.236 52.4277 365 53.6221 365C54.8164 365 55.8768 364.236 56.2545 363.103L57.6221 359H61.6221L62.9896 363.103C63.3673 364.236 64.4277 365 65.6221 365C66.8164 365 67.8768 364.236 68.2545 363.103L69.6221 359H73.6221L74.9896 363.103C75.3673 364.236 76.4277 365 77.6221 365C78.8164 365 79.8768 364.236 80.2545 363.103L81.6221 359H85.6221L86.9896 363.103C87.3673 364.236 88.4277 365 89.6221 365C90.8164 365 91.8768 364.236 92.2545 363.103L93.6221 359H97.6221L98.9896 363.103C99.3673 364.236 100.428 365 101.622 365C102.816 365 103.877 364.236 104.255 363.103L105.622 359H109.622L110.99 363.103C111.367 364.236 112.428 365 113.622 365C114.816 365 115.877 364.236 116.255 363.103L117.622 359H121.622L122.99 363.103C123.367 364.236 124.428 365 125.622 365C126.816 365 127.877 364.236 128.255 363.103L129.622 359H133.622L134.99 363.103C135.367 364.236 136.428 365 137.622 365C138.816 365 139.877 364.236 140.255 363.103L141.622 359H145.622L146.99 363.103C147.367 364.236 148.428 365 149.622 365C150.816 365 151.877 364.236 152.255 363.103L153.622 359H157.622L158.99 363.103C159.367 364.236 160.428 365 161.622 365C162.816 365 163.877 364.236 164.255 363.103L165.622 359H169.622L170.99 363.103C171.367 364.236 172.428 365 173.622 365C174.816 365 175.877 364.236 176.255 363.103L177.622 359H181.622L182.99 363.103C183.367 364.236 184.428 365 185.622 365C186.816 365 187.877 364.236 188.255 363.103L189.622 359H193.622L194.99 363.103C195.367 364.236 196.428 365 197.622 365C198.816 365 199.877 364.236 200.255 363.103L201.622 359H205.622L206.99 363.103C207.367 364.236 208.428 365 209.622 365C210.816 365 211.877 364.236 212.255 363.103L213.622 359H217.622L218.99 363.103C219.367 364.236 220.428 365 221.622 365C222.816 365 223.877 364.236 224.255 363.103L225.622 359H229.622L230.99 363.103C231.367 364.236 232.428 365 233.622 365C234.816 365 235.877 364.236 236.255 363.103L237.622 359H241.622L242.99 363.103C243.367 364.236 244.428 365 245.622 365C246.816 365 247.877 364.236 248.255 363.103L249.622 359H253.622L254.99 363.103C255.367 364.236 256.428 365 257.622 365C258.816 365 259.877 364.236 260.255 363.103L261.622 359H265.622L266.99 363.103C267.367 364.236 268.428 365 269.622 365C270.816 365 271.877 364.236 272.255 363.103L273.622 359H277.622L278.99 363.103C279.367 364.236 280.428 365 281.622 365C282.816 365 283.877 364.236 284.255 363.103L285.622 359H289.622L290.99 363.103C291.367 364.236 292.428 365 293.622 365C294.816 365 295.877 364.236 296.255 363.103L297.622 359H301.622L302.99 363.103C303.367 364.236 304.428 365 305.622 365C306.816 365 307.877 364.236 308.255 363.103L309.622 359H313.622L314.99 363.103C315.367 364.236 316.428 365 317.622 365C318.816 365 319.877 364.236 320.255 363.103L321.622 359H325.622L326.99 363.103C327.367 364.236 328.428 365 329.622 365C330.816 365 331.877 364.236 332.255 363.103L333.622 359H337.622L338.99 363.103C339.367 364.236 340.428 365 341.622 365C342.816 365 343.877 364.236 344.255 363.103L345.622 359L346 6L344.632 1.89734C344.255 0.764282 343.194 0 342 0C340.805 0 339.745 0.764282 339.367 1.89734L338 6H333L331.632 1.89734C331.255 0.764282 330.194 0 329 0C327.805 0 326.745 0.764282 326.367 1.89734L325 6H321L319.632 1.89734C319.255 0.764282 318.194 0 317 0C315.805 0 314.745 0.764282 314.367 1.89734L313 6H309L307.632 1.89734C307.255 0.764282 306.194 0 305 0C303.805 0 302.745 0.764282 302.367 1.89734L301 6H297L295.632 1.89734C295.255 0.764282 294.194 0 293 0C291.805 0 290.745 0.764282 290.367 1.89734L289 6H285L283.632 1.89734C283.255 0.764282 282.194 0 281 0C279.805 0 278.745 0.764282 278.367 1.89734L277 6H273L271.632 1.89734C271.255 0.764282 270.194 0 269 0C267.805 0 266.745 0.764282 266.367 1.89734L265 6H261L259.632 1.89734C259.255 0.764282 258.194 0 257 0C255.805 0 254.745 0.764282 254.367 1.89734L253 6H249L247.632 1.89734C247.255 0.764282 246.194 0 245 0C243.805 0 242.745 0.764282 242.367 1.89734L241 6H237L235.632 1.89734C235.255 0.764282 234.194 0 233 0C231.805 0 230.745 0.764282 230.367 1.89734L229 6H225L223.632 1.89734C223.255 0.764282 222.194 0 221 0C219.805 0 218.745 0.764282 218.367 1.89734L217 6H213L211.632 1.89734C211.255 0.764282 210.194 0 209 0C207.805 0 206.745 0.764282 206.367 1.89734L205 6H201L199.632 1.89734C199.255 0.764282 198.194 0 197 0C195.805 0 194.745 0.764282 194.367 1.89734L193 6H189L187.632 1.89734C187.255 0.764282 186.194 0 185 0C183.805 0 182.745 0.764282 182.367 1.89734L181 6H177L175.632 1.89734C175.255 0.764282 174.194 0 173 0C171.805 0 170.745 0.764282 170.367 1.89734L169 6H165L163.632 1.89734C163.255 0.764282 162.194 0 161 0C159.805 0 158.745 0.764282 158.367 1.89734L157 6H153L151.632 1.89734C151.255 0.764282 150.194 0 149 0C147.805 0 146.745 0.764282 146.367 1.89734L145 6H141L139.632 1.89734C139.255 0.764282 138.194 0 137 0C135.805 0 134.745 0.764282 134.367 1.89734L133 6H129L127.632 1.89734C127.255 0.764282 126.194 0 125 0C123.805 0 122.745 0.764282 122.367 1.89734L121 6H117L115.632 1.89734C115.255 0.764282 114.194 0 113 0C111.805 0 110.745 0.764282 110.367 1.89734L109 6H105L103.632 1.89734C103.255 0.764282 102.194 0 101 0C99.8054 0 98.745 0.764282 98.3673 1.89734L96.9998 6H92.9998L91.6322 1.89734C91.2545 0.764282 90.1941 0 88.9998 0C87.8054 0 86.745 0.764282 86.3673 1.89734L84.9998 6H80.9998L79.6322 1.89734C79.2545 0.764282 78.1941 0 76.9998 0C75.8054 0 74.745 0.764282 74.3673 1.89734L72.9998 6H68.9998L67.6322 1.89734C67.2545 0.764282 66.1941 0 64.9998 0C63.8054 0 62.745 0.764282 62.3673 1.89734L60.9998 6H56.9998L55.6322 1.89734C55.2545 0.764282 54.1941 0 52.9998 0C51.8054 0 50.745 0.764282 50.3673 1.89734L48.9998 6H44.9998L43.6322 1.89734C43.2545 0.764282 42.1941 0 40.9998 0C39.8054 0 38.745 0.764282 38.3673 1.89734L36.9998 6H32.9998L31.6322 1.89734C31.2545 0.764282 30.1941 0 28.9998 0C27.8054 0 26.745 0.764282 26.3673 1.89734L24.9998 6H20.9998L19.6322 1.89734C19.2545 0.764282 18.1941 0 16.9998 0C15.8054 0 14.745 0.764282 14.3673 1.89734L12.9998 6H8.99976L7.63221 1.89734C7.25451 0.764282 6.19414 0 4.99976 0Z" fill="white"/>
</svg>

