<svg width="80" height="80" viewBox="0 0 80 80" fill="none" xmlns="http://www.w3.org/2000/svg">
<path d="M68.285 11.715C52.6649 -3.90501 27.3351 -3.90501 11.715 11.715C-3.90501 27.3351 -3.90501 52.6649 11.715 68.285C27.3351 83.905 52.6649 83.905 68.285 68.285C83.905 52.6649 83.905 27.3351 68.285 11.715ZM57.4776 42.4485L44.9815 49.6253L32.7388 56.7177C32.3166 57.0554 31.7256 57.2243 31.1346 57.2243C29.5303 57.2243 28.2638 55.9578 28.2638 54.3536V40V25.562C28.2638 25.0554 28.3483 24.6332 28.6016 24.1266C29.3615 22.7757 31.1346 22.2691 32.4855 23.1135L44.8127 30.2058C44.8971 30.2058 44.8971 30.2902 44.9815 30.2902L57.4776 37.467C57.8997 37.7203 58.2375 38.058 58.5752 38.4802C59.3351 39.9156 58.8285 41.6887 57.4776 42.4485Z" fill="white"/>
</svg>
