<svg width="20" height="20" viewBox="0 0 20 20" fill="none" xmlns="http://www.w3.org/2000/svg">
<path d="M19.7711 18.6661L14.1285 13.0234C16.6993 9.89547 16.5244 5.25216 13.6031 2.33083C10.4953 -0.776943 5.4386 -0.776943 2.33083 2.33083C-0.776943 5.4386 -0.776943 10.4953 2.33083 13.6031C5.25138 16.5236 9.89411 16.7004 13.0234 14.1285L18.6661 19.7711C18.9712 20.0763 19.4659 20.0763 19.7711 19.7711C20.0763 19.4659 20.0763 18.9712 19.7711 18.6661ZM12.498 12.498C9.99958 14.9964 5.93434 14.9964 3.43591 12.498C0.937471 9.99954 0.937471 5.9343 3.43591 3.43587C5.93427 0.937548 9.9995 0.937353 12.498 3.43587C14.9965 5.9343 14.9965 9.99954 12.498 12.498Z" fill="#9191A5"/>
<path d="M11.7929 7.18551H8.74833V4.14098C8.74833 3.70942 8.39848 3.35958 7.96692 3.35958C7.53536 3.35958 7.18552 3.70942 7.18552 4.14098V7.18551H4.14099C3.70942 7.18551 3.35958 7.53536 3.35958 7.96692C3.35958 8.39848 3.70942 8.74833 4.14099 8.74833H7.18552V11.7929C7.18552 12.2244 7.53536 12.5743 7.96692 12.5743C8.39848 12.5743 8.74833 12.2244 8.74833 11.7929V8.74833H11.7929C12.2244 8.74833 12.5743 8.39848 12.5743 7.96692C12.5743 7.53536 12.2244 7.18551 11.7929 7.18551Z" fill="#9191A5"/>
</svg>
