<svg width="22" height="22" viewBox="0 0 22 22" fill="none" xmlns="http://www.w3.org/2000/svg">
<path d="M10.9938 12.1083C15.7879 12.1083 19.74 15.7002 20.1851 20.2769H1.80314C2.2482 15.7002 6.20033 12.1083 10.9938 12.1083ZM6.56611 6.05532C6.56611 3.6665 8.55187 1.72271 10.9938 1.72271C13.4352 1.72271 15.4215 3.6665 15.4215 6.05532C15.4215 8.443 13.4352 10.3856 10.9938 10.3856C8.55187 10.3856 6.56611 8.443 6.56611 6.05532ZM0 21.1382C0 21.6137 0.394566 21.9996 0.880728 21.9996H21.1075C21.1116 22.0001 21.1163 22.0001 21.1193 21.9996C21.606 21.9996 22 21.6137 22 21.1382C22 21.0883 21.9959 21.0389 21.9871 20.9912C21.9231 16.3537 18.8364 12.4253 14.5743 10.9828C16.1502 9.88489 17.183 8.08754 17.183 6.05532C17.183 2.71614 14.4064 1.19455e-09 10.9938 1.19455e-09C7.58072 1.19455e-09 4.80466 2.71614 4.80466 6.05532C4.80466 8.08754 5.83688 9.88489 7.41221 10.9828C3.10603 12.4408 0 16.4369 0 21.1382" fill="white"/>
</svg>
