<svg width="256" height="243" viewBox="0 0 256 243" fill="none" xmlns="http://www.w3.org/2000/svg">
<path d="M247.916 242.759H8.08421C3.63041 242.759 0 239.125 0 234.667V8.09195C0 3.63389 3.63041 0 8.08421 0H247.916C252.407 0 256 3.63389 256 8.09195V234.667C256 239.125 252.407 242.759 247.916 242.759Z" fill="#FAFAFE"/>
<path d="M256 18.8812H0V8.09196C0 3.63389 3.63041 0 8.08421 0H247.916C252.407 0 256 3.63389 256 8.09196V18.8812Z" fill="#415E94"/>
<path d="M14.8209 13.4866C17.0533 13.4866 18.863 11.6752 18.863 9.44063C18.863 7.2061 17.0533 5.39465 14.8209 5.39465C12.5885 5.39465 10.7788 7.2061 10.7788 9.44063C10.7788 11.6752 12.5885 13.4866 14.8209 13.4866Z" fill="#FF6E5A"/>
<path d="M28.295 13.4866C30.5274 13.4866 32.3371 11.6752 32.3371 9.44063C32.3371 7.2061 30.5274 5.39465 28.295 5.39465C26.0626 5.39465 24.2529 7.2061 24.2529 9.44063C24.2529 11.6752 26.0626 13.4866 28.295 13.4866Z" fill="#FFE071"/>
<path d="M41.7682 13.4866C44.0006 13.4866 45.8103 11.6752 45.8103 9.44063C45.8103 7.2061 44.0006 5.39465 41.7682 5.39465C39.5358 5.39465 37.7261 7.2061 37.7261 9.44063C37.7261 11.6752 39.5358 13.4866 41.7682 13.4866Z" fill="#C2E812"/>
<path d="M25.7111 29.6704H11.9781C11.2332 29.6704 10.6294 30.2742 10.6294 31.0191C10.6294 31.7639 11.2332 32.3677 11.9781 32.3677H25.7111C26.456 32.3677 27.0598 31.7639 27.0598 31.0191C27.0598 30.2742 26.456 29.6704 25.7111 29.6704Z" fill="#6E737D"/>
<path d="M52.6584 29.6704H38.9253C38.1805 29.6704 37.5767 30.2742 37.5767 31.0191C37.5767 31.7639 38.1805 32.3677 38.9253 32.3677H52.6584C53.4033 32.3677 54.0071 31.7639 54.0071 31.0191C54.0071 30.2742 53.4033 29.6704 52.6584 29.6704Z" fill="#ACB3B7"/>
<path d="M243.872 29.6704H230.139C229.394 29.6704 228.791 30.2742 228.791 31.0191C228.791 31.7639 229.394 32.3677 230.139 32.3677H243.872C244.617 32.3677 245.221 31.7639 245.221 31.0191C245.221 30.2742 244.617 29.6704 243.872 29.6704Z" fill="#ACB3B7"/>
<path d="M216.925 29.6704H203.192C202.447 29.6704 201.843 30.2742 201.843 31.0191C201.843 31.7639 202.447 32.3677 203.192 32.3677H216.925C217.67 32.3677 218.274 31.7639 218.274 31.0191C218.274 30.2742 217.67 29.6704 216.925 29.6704Z" fill="#ACB3B7"/>
<path d="M189.977 29.6704H176.244C175.499 29.6704 174.896 30.2742 174.896 31.0191C174.896 31.7639 175.499 32.3677 176.244 32.3677H189.977C190.722 32.3677 191.326 31.7639 191.326 31.0191C191.326 30.2742 190.722 29.6704 189.977 29.6704Z" fill="#ACB3B7"/>
<path d="M200.753 82.3621H55.2472C52.2678 82.3621 49.8525 84.7773 49.8525 87.7567C49.8525 90.7361 52.2678 93.1513 55.2472 93.1513H200.753C203.732 93.1513 206.147 90.7361 206.147 87.7567C206.147 84.7773 203.732 82.3621 200.753 82.3621Z" fill="#E1E3F0"/>
<rect x="71" y="78.3621" width="25" height="19" rx="9.5" fill="#C2E812"/>
<path d="M200.753 117.362H55.2472C52.2678 117.362 49.8525 119.777 49.8525 122.757C49.8525 125.736 52.2678 128.151 55.2472 128.151H200.753C203.732 128.151 206.147 125.736 206.147 122.757C206.147 119.777 203.732 117.362 200.753 117.362Z" fill="#E1E3F0"/>
<rect x="103" y="113.362" width="25" height="19" rx="9.5" fill="#C2E812"/>
<rect x="73" y="164.362" width="53" height="19" rx="9.5" fill="#2065E6"/>
<rect x="131" y="164.362" width="53" height="19" rx="9.5" fill="#E1E3F0"/>
<path d="M206 215.362H50V218.362H206V215.362Z" fill="#E1E3F0"/>
<path d="M206 223.362H50V226.362H206V223.362Z" fill="#E1E3F0"/>
</svg>
