<svg width="257" height="243" viewBox="0 0 257 243" fill="none" xmlns="http://www.w3.org/2000/svg">
<path d="M248.884 243H8.11579C3.64459 243 0 239.363 0 234.9V8.1C0 3.6375 3.64459 0 8.11579 0H248.884C253.393 0 257 3.6375 257 8.1V234.9C257 239.363 253.393 243 248.884 243Z" fill="#FAFAFE"/>
<path d="M257 18.9H0V8.1C0 3.6375 3.64459 0 8.11579 0H248.884C253.393 0 257 3.6375 257 8.1V18.9Z" fill="#415E94"/>
<path d="M14.8792 13.5C17.1203 13.5 18.9371 11.6868 18.9371 9.45003C18.9371 7.21327 17.1203 5.40002 14.8792 5.40002C12.6381 5.40002 10.8213 7.21327 10.8213 9.45003C10.8213 11.6868 12.6381 13.5 14.8792 13.5Z" fill="#FF6E5A"/>
<path d="M28.4051 13.5C30.6462 13.5 32.463 11.6868 32.463 9.45003C32.463 7.21327 30.6462 5.40002 28.4051 5.40002C26.1639 5.40002 24.3472 7.21327 24.3472 9.45003C24.3472 11.6868 26.1639 13.5 28.4051 13.5Z" fill="#FFE071"/>
<path d="M41.9314 13.5C44.1725 13.5 45.9893 11.6868 45.9893 9.45003C45.9893 7.21327 44.1725 5.40002 41.9314 5.40002C39.6903 5.40002 37.8735 7.21327 37.8735 9.45003C37.8735 11.6868 39.6903 13.5 41.9314 13.5Z" fill="#C2E812"/>
<path d="M163.819 229.5H147.324V232.2H163.819V229.5Z" fill="#ACB3B7"/>
<path d="M136.766 229.5H120.271V232.2H136.766V229.5Z" fill="#ACB3B7"/>
<path d="M109.676 229.5H93.1812V232.2H109.676V229.5Z" fill="#ACB3B7"/>
<path d="M164.871 139.875H92.0918V145.275H164.871V139.875Z" fill="#ACB3B7"/>
<path d="M206.089 156.075H50.9492V158.775H206.089V156.075Z" fill="#E1E6EA"/>
<path d="M198.01 164.175H58.9521V166.875H198.01V164.175Z" fill="#E1E6EA"/>
<path d="M206.089 172.275H50.9492V174.975H206.089V172.275Z" fill="#E1E6EA"/>
<path d="M198.01 180.375H58.9521V183.075H198.01V180.375Z" fill="#E1E6EA"/>
<path d="M128.5 129.037C145.827 129.037 159.874 115.018 159.874 97.725C159.874 80.4316 145.827 66.4125 128.5 66.4125C111.173 66.4125 97.1265 80.4316 97.1265 97.725C97.1265 115.018 111.173 129.037 128.5 129.037Z" fill="#C2E812"/>
<path d="M138.344 104.438C135.827 106.988 132.37 108.563 128.5 108.563C124.667 108.563 121.173 106.988 118.656 104.438C111.517 107.325 106.595 113.738 106.595 120.563C106.595 120.6 106.595 120.638 106.595 120.712C112.231 126.225 119.971 129.6 128.462 129.6C136.991 129.6 144.694 126.225 150.33 120.712C150.33 120.675 150.33 120.638 150.33 120.563C150.405 113.738 145.483 107.325 138.344 104.438Z" fill="white"/>
<path d="M128.5 105C134.165 105 138.758 100.417 138.758 94.7625C138.758 89.1085 134.165 84.525 128.5 84.525C122.835 84.525 118.243 89.1085 118.243 94.7625C118.243 100.417 122.835 105 128.5 105Z" fill="white"/>
<rect x="102" y="192" width="53" height="19" rx="9.5" fill="#2065E6"/>
<path d="M197.785 29.7H59.2529V45.9H197.785V29.7Z" fill="#E1E6EA"/>
<path d="M88.4123 36.45H75.5194C74.7739 36.45 74.1694 37.0544 74.1694 37.8C74.1694 38.5455 74.7739 39.15 75.5194 39.15H88.4123C89.1579 39.15 89.7623 38.5455 89.7623 37.8C89.7623 37.0544 89.1579 36.45 88.4123 36.45Z" fill="white"/>
<path d="M111.708 36.45H98.8148C98.0693 36.45 97.4648 37.0544 97.4648 37.8C97.4648 38.5455 98.0693 39.15 98.8148 39.15H111.708C112.453 39.15 113.058 38.5455 113.058 37.8C113.058 37.0544 112.453 36.45 111.708 36.45Z" fill="white"/>
<path d="M134.965 36.45H122.073C121.327 36.45 120.723 37.0544 120.723 37.8C120.723 38.5455 121.327 39.15 122.073 39.15H134.965C135.711 39.15 136.315 38.5455 136.315 37.8C136.315 37.0544 135.711 36.45 134.965 36.45Z" fill="white"/>
<path d="M158.223 36.45H145.33C144.584 36.45 143.98 37.0544 143.98 37.8C143.98 38.5455 144.584 39.15 145.33 39.15H158.223C158.968 39.15 159.573 38.5455 159.573 37.8C159.573 37.0544 158.968 36.45 158.223 36.45Z" fill="white"/>
<path d="M181.481 36.45H168.588C167.842 36.45 167.238 37.0544 167.238 37.8C167.238 38.5455 167.842 39.15 168.588 39.15H181.481C182.226 39.15 182.831 38.5455 182.831 37.8C182.831 37.0544 182.226 36.45 181.481 36.45Z" fill="white"/>
</svg>
