<svg width="80" height="29" viewBox="0 0 80 29" fill="none" xmlns="http://www.w3.org/2000/svg">
<path fill-rule="evenodd" clip-rule="evenodd" d="M75.6421 11.1175C75.6421 10.2725 76.3091 9.56104 77.154 9.56104C77.999 9.56104 78.666 10.2725 78.666 11.1175C78.666 11.9624 77.999 12.6739 77.154 12.6739C76.3091 12.7183 75.6421 12.0068 75.6421 11.1175ZM77.1096 12.3626C77.7321 12.3626 78.2658 11.829 78.2658 11.1619C78.2658 10.4949 77.7321 9.96126 77.1096 9.96126C76.487 9.96126 75.9534 10.4949 75.9534 11.1619C75.9534 11.829 76.487 12.3626 77.1096 12.3626ZM76.9317 11.829H76.6204V10.4504H77.1985C77.3319 10.4504 77.4653 10.4504 77.5543 10.5394C77.6877 10.6283 77.7321 10.7617 77.7321 10.8951C77.7321 11.073 77.6432 11.2064 77.5098 11.2509L77.7766 11.8734H77.3319L77.1096 11.3398H76.8872V11.829H76.9317ZM76.9317 11.0285H77.1096C77.1985 11.0285 77.243 11.0285 77.2874 10.984C77.3319 10.9396 77.3764 10.8951 77.3764 10.8062C77.3764 10.7617 77.3319 10.6728 77.2874 10.6728C77.243 10.6283 77.154 10.6283 77.1096 10.6283H76.9317V11.0285Z" fill="#FD0C15"/>
<path fill-rule="evenodd" clip-rule="evenodd" d="M54.0746 0.578099L53.6744 3.29072C52.785 2.80156 52.118 2.62368 51.4065 2.62368C49.5388 2.62368 48.2047 4.53585 48.2047 7.24847C48.2047 9.11618 49.0941 10.2724 50.5616 10.2724C51.1841 10.2724 51.8512 10.05 52.6961 9.64981L52.2514 12.4958C51.3175 12.7626 50.7394 12.8516 50.0279 12.8516C47.3153 12.8516 45.6255 10.806 45.6255 7.51529C45.6255 3.06837 47.9379 0 51.3175 0C51.7622 0 52.118 0.0444692 52.4737 0.133407L53.541 0.400222C53.7633 0.489161 53.8523 0.489161 54.0746 0.578099Z" fill="#FD0C15"/>
<path fill-rule="evenodd" clip-rule="evenodd" d="M45.6698 2.44584C45.5808 2.40137 45.4919 2.40137 45.403 2.40137C44.6025 2.40137 44.1133 2.84606 43.3129 4.04673L43.5352 2.53477H41.3118L39.7554 12.5848H42.2901C43.224 6.40359 43.4463 5.3808 44.647 5.3808C44.7359 5.3808 44.7359 5.3808 44.8249 5.3808C45.0472 4.18013 45.3585 3.29075 45.8032 2.44584H45.6698Z" fill="#FD0C15"/>
<path fill-rule="evenodd" clip-rule="evenodd" d="M30.5949 12.4515C29.9278 12.6739 29.3497 12.8073 28.7716 12.8073C27.482 12.8073 26.7705 12.0513 26.7705 10.5838C26.7705 10.317 26.815 10.0057 26.8594 9.64996L27.0373 8.67164L27.1707 7.8712L28.2825 1.02295H30.7727L30.4614 2.49043H31.7511L31.3953 4.93623H30.1057L29.4387 9.11633C29.3942 9.29421 29.3942 9.42762 29.3942 9.51656C29.3942 10.0502 29.661 10.2725 30.2391 10.2725C30.5504 10.2725 30.7283 10.2281 30.9061 10.1836L30.5949 12.4515Z" fill="#FD0C15"/>
<path fill-rule="evenodd" clip-rule="evenodd" d="M20.678 5.6921C20.678 6.98171 21.2561 7.82662 22.5902 8.49366C23.613 8.98282 23.7908 9.16069 23.7908 9.60538C23.7908 10.228 23.3461 10.5392 22.3678 10.5392C21.6118 10.5392 20.9448 10.4058 20.0999 10.139L19.7441 12.4514L19.8775 12.4959L20.3222 12.5848C20.5001 12.6293 20.678 12.6738 20.9893 12.6738C21.5674 12.7182 22.0565 12.7627 22.3678 12.7627C25.036 12.7627 26.2366 11.6954 26.2366 9.42751C26.2366 8.04896 25.7475 7.24852 24.4579 6.62595C23.3906 6.13679 23.3017 6.00338 23.3017 5.51422C23.3017 4.98059 23.7019 4.71378 24.5468 4.71378C25.036 4.71378 25.703 4.80272 26.37 4.89166L26.7258 2.57926C26.0588 2.44585 25.0804 2.35691 24.5023 2.35691C21.6118 2.31244 20.6335 3.8244 20.678 5.6921Z" fill="#FD0C15"/>
<path fill-rule="evenodd" clip-rule="evenodd" d="M74.1746 12.5846H71.7732L71.9066 11.6063C71.2396 12.3623 70.4836 12.718 69.5943 12.718C67.7266 12.718 66.5259 11.0727 66.5259 8.53794C66.5259 5.20275 68.3936 2.35672 70.617 2.35672C71.5954 2.35672 72.3069 2.80141 73.0184 3.73527L73.552 0.177734H76.0423L74.1746 12.5846ZM70.4392 10.2278C71.6398 10.2278 72.4403 8.84922 72.4403 6.84811C72.4403 5.5585 71.9511 4.847 71.1062 4.847C69.95 4.847 69.1496 6.27001 69.1496 8.22665C69.1496 9.51626 69.5943 10.2278 70.4392 10.2278Z" fill="#FD0C15"/>
<path fill-rule="evenodd" clip-rule="evenodd" d="M38.5992 12.3626C37.7543 12.6294 36.9094 12.7628 36.02 12.7628C33.2185 12.7628 31.751 11.2064 31.751 8.22697C31.751 4.75837 33.6187 2.22363 36.1534 2.22363C38.2435 2.22363 39.5331 3.64665 39.5331 5.91457C39.5331 6.62608 39.4441 7.38205 39.2218 8.40484H34.1523C34.1078 8.58272 34.1078 8.62719 34.1078 8.71613C34.1078 9.9168 34.8638 10.4949 36.3313 10.4949C37.2207 10.4949 38.0211 10.2725 38.955 9.87233L38.5992 12.3626ZM37.1762 6.35926C37.2207 6.13692 37.2207 5.95904 37.2207 5.8701C37.2207 5.06966 36.776 4.5805 36.02 4.5805C35.2196 4.5805 34.6415 5.20307 34.4191 6.40373H37.1762V6.35926Z" fill="#FD0C15"/>
<path fill-rule="evenodd" clip-rule="evenodd" d="M10.5393 12.5846H8.04905L9.47206 3.06819L6.22581 12.5846H4.53599L4.31364 3.11266L2.80169 12.5846H0.444824L2.40147 0.222168H6.00347L6.13688 7.87086L8.58268 0.222168H12.496L10.5393 12.5846Z" fill="#FD0C15"/>
<path fill-rule="evenodd" clip-rule="evenodd" d="M17.0315 8.09349C16.7647 8.04902 16.6313 8.04902 16.4534 8.04902C15.0304 8.04902 14.3189 8.58265 14.3189 9.56097C14.3189 10.1835 14.6746 10.5838 15.2527 10.5838C16.2311 10.6282 16.987 9.56097 17.0315 8.09349ZM18.8547 12.5849H16.7647L16.8092 11.5176C16.1866 12.3625 15.3417 12.7183 14.141 12.7183C12.7625 12.7183 11.8286 11.6066 11.8286 9.96119C11.8286 7.51539 13.474 6.09238 16.2755 6.09238C16.5868 6.09238 16.9426 6.13685 17.2983 6.18132C17.3873 5.82556 17.3873 5.69216 17.3873 5.51428C17.3873 4.84724 16.9426 4.58043 15.7864 4.58043C15.0749 4.58043 14.2744 4.71383 13.6963 4.89171L13.385 5.02512L13.1627 5.11406L13.5184 2.84613C14.7636 2.44591 15.6085 2.3125 16.5423 2.3125C18.7213 2.3125 19.8331 3.33529 19.8331 5.24746C19.8331 5.73662 19.7886 6.09238 19.6107 7.24858L19.0771 10.8061L18.9881 11.4287L18.9437 11.9623L18.8992 12.3181L18.8547 12.5849Z" fill="#FD0C15"/>
<path fill-rule="evenodd" clip-rule="evenodd" d="M58.4324 8.09352C58.1656 8.04906 58.0322 8.04906 57.8543 8.04906C56.4313 8.04906 55.6753 8.58269 55.6753 9.56101C55.6753 10.1836 56.031 10.5838 56.6091 10.5838C57.6319 10.6283 58.3879 9.56101 58.4324 8.09352ZM60.2556 12.5849H58.1656L58.21 11.5176C57.5875 12.3626 56.7426 12.7183 55.5419 12.7183C54.1633 12.7183 53.2295 11.6066 53.2295 9.96123C53.2295 7.51543 54.8749 6.09241 57.6764 6.09241C57.9432 6.09241 58.3434 6.13688 58.6992 6.18135C58.7881 5.8256 58.7881 5.69219 58.7881 5.51431C58.7881 4.84728 58.3434 4.58046 57.1872 4.58046C56.4757 4.58046 55.6753 4.71387 55.0972 4.89175L54.7414 4.98068L54.5191 5.06962L54.8748 2.8017C56.12 2.40147 56.9649 2.26807 57.8988 2.26807C60.0777 2.26807 61.1895 3.29086 61.1895 5.20303C61.1895 5.69219 61.145 6.04794 60.9671 7.20414L60.4335 10.7617L60.3446 11.3842L60.2556 11.8734L60.2111 12.2292L60.2556 12.5849Z" fill="#FD0C15"/>
<path fill-rule="evenodd" clip-rule="evenodd" d="M67.2816 2.44584C67.1927 2.40137 67.1037 2.40137 67.0148 2.40137C66.2144 2.40137 65.7252 2.84606 64.9248 4.04673L65.1471 2.53477H62.8792L61.3228 12.5848H63.8575C64.7913 6.40359 65.0137 5.3808 66.2144 5.3808C66.3033 5.3808 66.3033 5.3808 66.3922 5.3808C66.6146 4.18013 66.9259 3.29075 67.3706 2.44584H67.2816Z" fill="#FD0C15"/>
<path fill-rule="evenodd" clip-rule="evenodd" d="M56.6983 22.3679C56.6983 24.6358 55.9868 26.0144 54.8751 26.0144C54.0746 26.0588 53.5855 25.125 53.5855 23.7909C53.5855 22.19 54.297 20.3668 55.4532 20.3668C56.387 20.3223 56.6983 21.3006 56.6983 22.3679ZM59.1886 22.3679C59.1886 19.8331 57.9435 17.832 55.5866 17.832C52.874 17.832 51.0952 20.2334 51.0952 23.7464C51.0952 26.2812 52.1625 28.3712 54.6972 28.3712C57.3209 28.4157 59.1886 26.5925 59.1886 22.3679Z" fill="#F3AE12"/>
<path fill-rule="evenodd" clip-rule="evenodd" d="M51.9399 16.0976L51.5397 18.8102C50.6948 18.3211 50.1167 18.1432 49.4497 18.1432C47.7154 18.1432 46.4702 20.0554 46.4702 22.768C46.4702 24.6357 47.2707 25.7919 48.6492 25.7919C49.2273 25.7919 49.8943 25.5696 50.6503 25.1693L50.2501 28.0154C49.4052 28.2822 48.8271 28.3711 48.16 28.3711C45.6253 28.3711 44.0244 26.3255 44.0244 23.0348C44.0244 18.5879 46.2034 15.5195 49.3607 15.5195C49.7609 15.5195 50.1167 15.564 50.428 15.6529L51.4063 15.9198C51.6286 15.9642 51.7176 16.0087 51.9399 16.0976Z" fill="#F3AE12"/>
<path fill-rule="evenodd" clip-rule="evenodd" d="M36.3311 17.9209C36.2422 17.8765 36.1532 17.8765 36.0643 17.8765C35.3083 17.8765 34.8636 18.3212 34.1076 19.5218L34.33 18.0099H32.1955L30.7725 28.0599H33.1293C34.0187 21.9232 34.2411 20.8559 35.3528 20.8559C35.4417 20.8559 35.4417 20.8559 35.5307 20.9004C35.753 19.6997 36.0198 18.8103 36.42 17.9654L36.3311 17.9209Z" fill="#F3AE12"/>
<path fill-rule="evenodd" clip-rule="evenodd" d="M67.1038 27.9713H64.8804L65.0138 26.993C64.3912 27.749 63.6797 28.1048 62.8348 28.1048C61.145 28.1048 59.9888 26.4594 59.9888 23.9247C59.9888 20.5895 61.7675 17.7434 63.8131 17.7434C64.747 17.7434 65.414 18.1881 66.081 19.122L66.6147 15.5645H68.9271L67.1038 27.9713ZM63.5908 25.6145C64.7025 25.6145 65.4585 24.2359 65.4585 22.2348C65.4585 20.9452 65.0138 20.2782 64.2133 20.2782C63.1461 20.2782 62.3901 21.6567 62.3901 23.6578C62.3901 24.9474 62.7903 25.6145 63.5908 25.6145Z" fill="#F3AE12"/>
<path fill-rule="evenodd" clip-rule="evenodd" d="M14.2747 27.9266C13.4742 28.1934 12.7182 28.3268 11.8733 28.3268C9.24964 28.3268 7.87109 26.7704 7.87109 23.7909C7.87109 20.3668 9.60539 17.7876 11.9623 17.7876C13.9189 17.7876 15.1196 19.2106 15.1196 21.4785C15.1196 22.19 15.0306 22.946 14.8083 23.9688H10.139C10.0946 24.1467 10.0946 24.1912 10.0946 24.2801C10.0946 25.4363 10.8061 26.0144 12.1846 26.0144C13.0295 26.0144 13.7855 25.792 14.6304 25.3918L14.2747 27.9266ZM12.9406 21.9677C12.9406 21.7454 12.985 21.5675 12.985 21.4785C12.985 20.6781 12.5848 20.1889 11.8733 20.1889C11.1173 20.1889 10.5837 20.8115 10.3614 22.0122H12.9406V21.9677Z" fill="#F3AE12"/>
<path fill-rule="evenodd" clip-rule="evenodd" d="M42.2903 27.9266C41.4898 28.1934 40.7339 28.3268 39.8889 28.3268C37.2208 28.3268 35.8867 26.7704 35.8867 23.7909C35.8867 20.3668 37.621 17.7876 39.9779 17.7876C41.9345 17.7876 43.1797 19.2106 43.1797 21.4785C43.1797 22.19 43.0907 22.946 42.8684 23.9688H38.1546C38.1102 24.1467 38.1102 24.1912 38.1102 24.2801C38.1102 25.4363 38.8217 26.0144 40.2002 26.0144C41.0451 26.0144 41.8011 25.792 42.646 25.3918L42.2903 27.9266ZM40.9562 21.9677C41.0007 21.7454 41.0007 21.5675 41.0007 21.4785C41.0007 20.6781 40.6004 20.1889 39.8889 20.1889C39.133 20.1889 38.5993 20.8115 38.377 22.0122H40.9562V21.9677Z" fill="#F3AE12"/>
<path fill-rule="evenodd" clip-rule="evenodd" d="M75.1086 27.9266C74.3082 28.1934 73.5077 28.3268 72.7073 28.3268C70.0836 28.3268 68.7051 26.7704 68.7051 23.7909C68.7051 20.3668 70.4838 17.7876 72.8407 17.7876C74.7973 17.7876 75.998 19.2106 75.998 21.4785C75.998 22.19 75.9091 22.946 75.6867 23.9688H71.0175C70.973 24.1467 70.973 24.1912 70.973 24.2801C70.973 25.4363 71.6845 26.0144 73.063 26.0144C73.908 26.0144 74.6639 25.792 75.5089 25.3918L75.1086 27.9266ZM73.7746 21.9677C73.7746 21.7454 73.819 21.5675 73.819 21.4785C73.819 20.6781 73.4188 20.1889 72.7073 20.1889C71.9513 20.1889 71.4177 20.8115 71.1953 22.0122H73.7746V21.9677Z" fill="#F3AE12"/>
<path fill-rule="evenodd" clip-rule="evenodd" d="M7.29294 18.3658C6.84825 18.0545 6.18121 17.7877 5.3363 17.7877C4.35798 17.7877 3.64647 18.01 3.64647 18.9883C3.64647 20.7671 7.11506 20.1001 7.11506 23.9244C7.11506 27.393 4.84714 28.3269 2.75709 28.3269C1.82324 28.3269 0.755976 28.0156 0 27.6598L0.578099 25.1251C1.06726 25.5698 2.00111 25.8366 2.80156 25.8366C3.55753 25.8366 4.71373 25.6142 4.71373 24.3246C4.71373 22.2791 1.24514 23.035 1.24514 19.4775C1.24514 16.2313 3.29072 15.2529 5.24736 15.2529C6.35909 15.2529 7.38188 15.4308 8.00445 15.831L7.29294 18.3658Z" fill="#F3AE12"/>
<path fill-rule="evenodd" clip-rule="evenodd" d="M21.1674 27.9265C20.6783 28.1488 20.0112 28.3267 19.0774 28.3267C17.0318 28.3267 15.7422 26.2811 15.7422 23.7464C15.7422 20.4557 17.6099 17.8765 20.3225 17.8765C20.9006 17.8765 21.8345 18.1433 22.546 18.5435L22.0123 20.9448C21.4787 20.5891 20.9451 20.4112 20.4114 20.4112C19.1663 20.4112 18.2325 21.5674 18.2325 23.613C18.2325 24.8137 18.8995 25.792 19.9223 25.792C20.5449 25.792 20.9895 25.6586 21.4787 25.3473L21.1674 27.9265Z" fill="#F3AE12"/>
<path fill-rule="evenodd" clip-rule="evenodd" d="M29.9722 25.3916C29.8388 26.2366 29.7499 27.0815 29.6609 27.9709H27.393L27.5709 26.37H27.5264C26.8149 27.4817 26.1034 28.2377 24.7693 28.2377C23.3463 28.2377 22.5903 26.7257 22.5903 24.8135C22.5903 24.1465 22.6348 23.7463 22.7682 22.7235L23.3908 18.0542H25.9255L25.3029 22.7235C25.214 23.2127 25.1251 23.7463 25.1251 24.2354C25.1251 24.8135 25.3919 25.4361 26.1034 25.3916C27.1262 25.3916 27.7488 24.1465 27.9266 22.6346L28.6381 18.0098H31.0839L29.9722 25.3916Z" fill="#F3AE12"/>
<path fill-rule="evenodd" clip-rule="evenodd" d="M77.4651 27.882H77.0649V26.2366H76.5312V25.8809H77.9987V26.2366H77.4651V27.882Z" fill="#F3AE12"/>
<path fill-rule="evenodd" clip-rule="evenodd" d="M80 27.882H79.6442V26.1921L79.2884 27.882H78.9327L78.5769 26.1921V27.882H78.2212V25.8809H78.7993L79.1106 27.4817H79.155L79.4663 25.8809H80V27.882Z" fill="#F3AE12"/>
</svg>
