<svg width="90" height="34" viewBox="0 0 90 34" fill="none" xmlns="http://www.w3.org/2000/svg">
<path d="M61.3047 19.3118L62.2025 19.5783C62.1426 19.8301 62.0528 20.0374 61.9182 20.2003C61.7835 20.3632 61.6339 20.4965 61.4393 20.5705C61.2448 20.6594 61.0054 20.7038 60.7061 20.7038C60.347 20.7038 60.0627 20.6594 59.8233 20.5557C59.5988 20.452 59.4043 20.2743 59.2397 20.0078C59.0751 19.756 58.9854 19.4155 58.9854 19.0156C58.9854 18.4825 59.135 18.0679 59.4193 17.7717C59.7036 17.4756 60.1226 17.3423 60.6463 17.3423C61.0652 17.3423 61.3795 17.4311 61.6189 17.594C61.8583 17.7569 62.0379 18.0087 62.1426 18.3641L61.2448 18.5566C61.2149 18.4529 61.185 18.3789 61.1401 18.3344C61.0802 18.2604 61.0204 18.2012 60.9306 18.1567C60.8408 18.1123 60.751 18.0975 60.6612 18.0975C60.4368 18.0975 60.2572 18.1864 60.1375 18.3789C60.0477 18.5121 60.0029 18.7343 60.0029 19.0156C60.0029 19.371 60.0627 19.6228 60.1674 19.756C60.2722 19.8893 60.4368 19.9634 60.6313 19.9634C60.8258 19.9634 60.9755 19.9041 61.0652 19.8005C61.185 19.6672 61.2598 19.5191 61.3047 19.3118Z" fill="#225E63"/>
<path d="M62.5615 19.0138C62.5615 18.4807 62.7112 18.0661 63.0104 17.7699C63.3097 17.4738 63.7287 17.3257 64.2673 17.3257C64.821 17.3257 65.24 17.4738 65.5392 17.7551C65.8385 18.0513 65.9881 18.4511 65.9881 18.9842C65.9881 19.3692 65.9283 19.6802 65.7936 19.9171C65.6589 20.1541 65.4794 20.3466 65.225 20.4799C64.9856 20.6131 64.6713 20.6872 64.3122 20.6872C63.9381 20.6872 63.6389 20.6279 63.3845 20.5095C63.1451 20.391 62.9506 20.2133 62.786 19.9468C62.6214 19.6802 62.5615 19.3989 62.5615 19.0138ZM63.579 19.0138C63.579 19.3396 63.6389 19.5766 63.7586 19.7246C63.8783 19.8727 64.0429 19.9468 64.2673 19.9468C64.4918 19.9468 64.6564 19.8727 64.7761 19.7394C64.8958 19.5914 64.9557 19.3396 64.9557 18.9842C64.9557 18.6732 64.8958 18.4511 64.7611 18.3178C64.6414 18.1698 64.4619 18.1105 64.2524 18.1105C64.0429 18.1105 63.8783 18.1846 63.7586 18.3327C63.6389 18.4511 63.579 18.6881 63.579 19.0138Z" fill="#225E63"/>
<path d="M66.5119 17.3848H67.8436L68.3524 19.3691L68.8611 17.3848H70.1928V20.6426H69.3549V18.1548L68.7115 20.6426H67.9633L67.3199 18.1548V20.6426H66.4819V17.3848H66.5119Z" fill="#225E63"/>
<path d="M70.8511 17.3848H72.5419C72.916 17.3848 73.1854 17.4736 73.3649 17.6513C73.5445 17.829 73.6343 18.0659 73.6343 18.3917C73.6343 18.7175 73.5295 18.9841 73.335 19.1618C73.1405 19.3543 72.8262 19.4431 72.4222 19.4431H71.8686V20.6574H70.8511V17.3848ZM71.8686 18.7768H72.123C72.3175 18.7768 72.4522 18.7471 72.5419 18.6731C72.6167 18.5991 72.6616 18.525 72.6616 18.4213C72.6616 18.3177 72.6317 18.2288 72.5569 18.1548C72.4821 18.0808 72.3624 18.0511 72.1678 18.0511H71.8835L71.8686 18.7768Z" fill="#225E63"/>
<path d="M74.1733 17.3848H75.1908V19.843H76.7769V20.6426H74.1733V17.3848Z" fill="#225E63"/>
<path d="M77.2856 17.3848H78.3031V20.6426H77.2856V17.3848Z" fill="#225E63"/>
<path d="M81.0563 20.0949H79.9041L79.7395 20.628H78.707L79.949 17.3701H81.0563L82.2982 20.628H81.2358L81.0563 20.0949ZM80.8468 19.3989L80.4877 18.229L80.1285 19.3989H80.8468Z" fill="#225E63"/>
<path d="M82.6123 17.3848H83.555L84.797 19.1914V17.3848H85.7546V20.6426H84.797L83.57 18.8508V20.6426H82.6123V17.3848Z" fill="#225E63"/>
<path d="M86.2036 17.3848H89.301V18.1844H88.2686V20.6426H87.251V18.1844H86.2186L86.2036 17.3848Z" fill="#225E63"/>
<path d="M49.0647 22.3458L52.0125 21.4277L51.0548 19.3249C50.3516 20.1986 49.6483 21.324 49.0647 22.3458ZM48.0622 12.7352L42.2863 0L0 2.36934L11.7163 34L34.266 26.966C32.8295 24.9225 32.3058 22.4939 33.9667 21.3092C35.8222 19.9765 38.6203 21.5165 40.401 23.6934C42.1217 20.8502 46.9549 14.2308 48.0622 12.7352Z" fill="#225E63"/>
<path d="M40.9688 9.20328C42.7344 9.20328 44.1709 7.87053 44.1709 6.21199C44.1709 4.55346 42.7344 3.2207 40.9688 3.2207C39.2031 3.2207 37.7666 4.55346 37.7666 6.21199C37.7666 7.85572 39.2031 9.20328 40.9688 9.20328ZM38.3502 10.4916H43.5873V24.0413H38.3502V10.4916Z" fill="#FEFEFE"/>
<path d="M35.7618 14.4457C35.8067 14.4605 35.8366 14.4457 35.8366 14.4012V10.9657C35.8366 10.9213 35.8067 10.8768 35.7618 10.8472C35.7618 10.8472 35.0735 10.403 32.9786 10.2845C32.8739 10.2253 31.0334 10.2105 30.5396 10.2845C22.9083 10.8916 22.624 16.3559 22.624 16.5929V17.9256C22.624 18.0885 22.624 23.6713 30.5396 24.1599C31.3177 24.2192 32.829 24.1599 32.9786 24.1599C34.8042 24.1599 36.0611 23.612 36.0611 23.612C36.106 23.5972 36.1359 23.5528 36.1359 23.5084V20.295C36.1359 20.2505 36.106 20.2357 36.076 20.2653C36.076 20.2653 35.5074 20.7096 33.0235 20.9613C32.3203 21.0354 31.9761 21.0058 31.7217 20.9613C28.1904 20.369 28.0258 17.822 28.0258 17.822C28.0258 17.7775 28.0108 17.7035 28.0108 17.6739V16.6965C28.0108 16.6521 28.0108 16.5781 28.0258 16.5484C28.0258 16.5484 28.2652 13.8089 31.7217 13.5127H33.0235C34.5348 13.7052 35.7618 14.4457 35.7618 14.4457Z" fill="#FEFEFE"/>
<path d="M8.07959 23.997C8.07959 24.0414 8.10952 24.071 8.15441 24.071H13.2569C13.3018 24.071 13.3317 24.0414 13.3317 23.997V20.0579C13.3317 20.0135 13.3616 19.9839 13.4065 19.9839C13.4065 19.9839 21.5615 20.5614 21.5615 15.1564C21.5615 10.8767 16.4441 10.4177 14.7682 10.4917C14.7383 10.4917 8.15441 10.4917 8.15441 10.4917C8.10952 10.4917 8.07959 10.5213 8.07959 10.5658V23.997ZM13.2419 16.9778V13.4386H14.4989C14.4989 13.4386 16.3094 13.5126 16.459 14.7417C16.489 14.8306 16.489 15.4377 16.459 15.4673C16.2196 16.9037 14.6485 16.9778 14.6485 16.9778H13.2419Z" fill="#FEFEFE"/>
<path d="M41.1194 30.5792C41.5383 30.5792 41.8675 30.5792 42.4062 30.3423C44.2616 29.3797 50.5313 14.2308 57.1451 9.56612C57.19 9.53651 57.2348 9.49208 57.2648 9.44766C57.3097 9.38842 57.3097 9.32919 57.3097 9.32919C57.3097 9.32919 57.3097 9.01821 56.337 9.01821C50.4565 8.85532 44.3365 21.0722 41.1194 25.8997C41.0745 25.959 40.865 25.8997 40.865 25.8997C40.865 25.8997 38.7103 23.3823 36.8398 22.4198C36.795 22.405 36.5855 22.3309 36.361 22.3457C36.2114 22.3457 35.3435 22.5234 34.9395 22.9381C34.4607 23.4416 34.4756 23.7229 34.4756 24.3301C34.4756 24.3745 34.5056 24.5818 34.5654 24.6855C35.0293 25.4851 37.1092 28.3283 38.83 29.898C39.0843 30.0905 39.4883 30.5792 41.1194 30.5792Z" fill="#2BBC5D"/>
<path d="M58.8809 4.99023H63.7739C64.7465 4.99023 65.5246 5.12351 66.1081 5.37525C66.7067 5.6418 67.2005 6.01201 67.5745 6.48588C67.9636 6.97455 68.2479 7.53727 68.4125 8.17403C68.5921 8.81079 68.6818 9.49198 68.6818 10.2176C68.6818 11.343 68.5472 12.2167 68.2928 12.8387C68.0384 13.4606 67.6793 13.9789 67.2154 14.4084C66.7516 14.823 66.2578 15.1043 65.7341 15.2524C65.0158 15.4449 64.3574 15.5338 63.7739 15.5338H58.8809V4.99023ZM62.1728 7.37438V13.1348H62.9808C63.6691 13.1348 64.1629 13.0608 64.4472 12.9127C64.7315 12.7646 64.9709 12.4981 65.1355 12.1279C65.3001 11.7577 65.3899 11.1357 65.3899 10.2916C65.3899 9.16619 65.2103 8.41097 64.8363 7.99633C64.4622 7.5817 63.8636 7.37438 62.9958 7.37438H62.1728Z" fill="#225E63"/>
<path d="M69.5947 12.054L72.737 11.8614C72.8118 12.3649 72.9465 12.7499 73.156 13.0165C73.5002 13.4459 73.979 13.6533 74.6074 13.6533C75.0713 13.6533 75.4454 13.5496 75.6998 13.3275C75.9541 13.1053 76.0888 12.8536 76.0888 12.5722C76.0888 12.3057 75.9691 12.054 75.7297 11.8318C75.4903 11.6097 74.9217 11.4172 74.0388 11.2247C72.5874 10.8989 71.5699 10.4695 70.9414 9.93635C70.313 9.40325 70.0137 8.72207 70.0137 7.8928C70.0137 7.34489 70.1783 6.84141 70.4925 6.35273C70.8068 5.86405 71.2856 5.49384 71.929 5.21249C72.5724 4.93113 73.4403 4.79785 74.5476 4.79785C75.9093 4.79785 76.9567 5.04959 77.66 5.55308C78.3782 6.05656 78.7972 6.85621 78.9318 7.95203L75.8195 8.12973C75.7297 7.65587 75.5651 7.31527 75.2958 7.09315C75.0264 6.87102 74.6673 6.76736 74.2034 6.76736C73.8144 6.76736 73.5301 6.84141 73.3356 7.0043C73.141 7.16719 73.0513 7.3597 73.0513 7.59663C73.0513 7.75952 73.1261 7.92242 73.2907 8.05569C73.4403 8.18897 73.8144 8.32224 74.398 8.44071C75.8344 8.75168 76.8669 9.06266 77.4954 9.37364C78.1238 9.68461 78.5727 10.0844 78.857 10.5435C79.1413 11.0026 79.276 11.5357 79.276 12.1132C79.276 12.7944 79.0815 13.4163 78.7074 13.979C78.3333 14.5566 77.7946 14.986 77.1213 15.2822C76.4479 15.5783 75.5801 15.7264 74.5476 15.7264C72.737 15.7264 71.4801 15.3858 70.7768 14.6898C70.0885 13.9938 69.6995 13.1202 69.5947 12.054Z" fill="#225E63"/>
<path d="M80.1138 12.054L83.2561 11.8614C83.3309 12.3649 83.4656 12.7499 83.675 13.0165C84.0192 13.4459 84.498 13.6533 85.1265 13.6533C85.5903 13.6533 85.9644 13.5496 86.2188 13.3275C86.4732 13.1053 86.6078 12.8536 86.6078 12.5722C86.6078 12.3057 86.4881 12.054 86.2487 11.8318C86.0093 11.6097 85.4407 11.4172 84.5579 11.2247C83.1064 10.8989 82.0889 10.4695 81.4605 9.93635C80.847 9.40325 80.5327 8.72207 80.5327 7.8928C80.5327 7.34489 80.6973 6.84141 81.0116 6.35273C81.3258 5.86405 81.8046 5.49384 82.448 5.21249C83.0915 4.93113 83.9593 4.79785 85.0666 4.79785C86.4283 4.79785 87.4757 5.04959 88.179 5.55308C88.8972 6.05656 89.3162 6.85621 89.4509 7.95203L86.3385 8.12973C86.2487 7.65587 86.0841 7.31527 85.8148 7.09315C85.5454 6.87102 85.1863 6.76736 84.7225 6.76736C84.3334 6.76736 84.0491 6.84141 83.8546 7.0043C83.6601 7.16719 83.5703 7.3597 83.5703 7.59663C83.5703 7.75952 83.6451 7.92242 83.8097 8.05569C83.9593 8.18897 84.3334 8.32224 84.917 8.44071C86.3535 8.75168 87.3859 9.06266 88.0144 9.37364C88.6429 9.68461 89.0918 10.0844 89.3761 10.5435C89.6604 11.0026 89.795 11.5357 89.795 12.1132C89.795 12.7944 89.6005 13.4163 89.2264 13.979C88.8523 14.5566 88.3137 14.986 87.6403 15.2822C86.967 15.5783 86.0991 15.7264 85.0666 15.7264C83.2561 15.7264 81.9991 15.3858 81.2959 14.6898C80.5926 13.9938 80.2035 13.1202 80.1138 12.054Z" fill="#225E63"/>
</svg>
